<?xml version="1.0" encoding="utf-8"?>
<svg viewBox="87.986 0 355.299 500" xmlns="http://www.w3.org/2000/svg">
  <defs>
    <linearGradient gradientUnits="userSpaceOnUse" x1="257.403" y1="43.866" x2="257.403" y2="332.548" id="gradient-0" gradientTransform="matrix(-0.076079, -0.062656, 0.054565, -0.066255, 238.073023, 363.911366)">
      <stop offset="0" style="stop-color: rgb(229, 156, 64);"/>
      <stop offset="1" style="stop-color: rgb(113, 211, 203);"/>
    </linearGradient>
  </defs>
  <rect x="87.986" width="355.299" height="500" style="stroke: rgb(0, 0, 0); fill: rgb(42, 42, 42);"/>
  <path d="M 286.271 177.756 L 286.271 164.943 L 290.143 164.943 L 292.468 173.683 L 294.767 164.943 L 298.648 164.943 L 298.648 177.756 L 296.244 177.756 L 296.244 167.67 L 293.701 177.756 L 291.21 177.756 L 288.675 167.67 L 288.675 177.756 Z M 301.136 177.756 L 301.136 164.943 L 303.723 164.943 L 303.723 177.756 Z M 306.214 177.756 L 306.214 164.943 L 308.731 164.943 L 313.975 173.5 L 313.975 164.943 L 316.379 164.943 L 316.379 177.756 L 313.783 177.756 L 308.618 169.4 L 308.618 177.756 Z M 319.11 177.756 L 319.11 164.943 L 328.611 164.943 L 328.611 167.11 L 321.697 167.11 L 321.697 169.951 L 328.13 169.951 L 328.13 172.11 L 321.697 172.11 L 321.697 175.597 L 328.856 175.597 L 328.856 177.756 Z M 330.969 177.756 L 330.969 164.943 L 333.556 164.943 L 333.556 177.756 Z M 336.029 177.756 L 336.029 164.943 L 341.474 164.943 Q 343.528 164.943 344.459 165.288 Q 345.39 165.633 345.949 166.516 Q 346.509 167.399 346.509 168.535 Q 346.509 169.977 345.661 170.917 Q 344.813 171.856 343.126 172.101 Q 343.965 172.591 344.512 173.176 Q 345.058 173.762 345.984 175.256 L 347.549 177.756 L 344.455 177.756 L 342.584 174.968 Q 341.588 173.473 341.221 173.084 Q 340.854 172.695 340.443 172.551 Q 340.032 172.407 339.141 172.407 L 338.616 172.407 L 338.616 177.756 Z M 338.616 170.362 L 340.53 170.362 Q 342.392 170.362 342.855 170.204 Q 343.319 170.047 343.581 169.663 Q 343.843 169.278 343.843 168.701 Q 343.843 168.054 343.498 167.657 Q 343.152 167.259 342.523 167.154 Q 342.209 167.11 340.635 167.11 L 338.616 167.11 Z M 360.503 177.756 L 357.688 177.756 L 356.57 174.845 L 351.448 174.845 L 350.39 177.756 L 347.646 177.756 L 352.637 164.943 L 355.372 164.943 Z M 355.739 172.687 L 353.974 167.932 L 352.243 172.687 Z" transform="matrix(2.626981, 0, 0, 3.355219, -518.469238, -337.649384)" style="fill: rgb(233, 112, 0); white-space: pre;"/>
  <path d="M 95.069 217.461 L 92.788 217.461 L 92.788 216.098 Q 92.219 216.893 91.446 217.282 Q 90.672 217.671 89.886 217.671 Q 88.286 217.671 87.146 216.382 Q 86.005 215.092 86.005 212.785 Q 86.005 210.425 87.115 209.197 Q 88.225 207.969 89.921 207.969 Q 91.477 207.969 92.613 209.263 L 92.613 204.648 L 95.069 204.648 Z M 88.514 212.619 Q 88.514 214.105 88.924 214.769 Q 89.519 215.73 90.585 215.73 Q 91.433 215.73 92.027 215.009 Q 92.622 214.288 92.622 212.855 Q 92.622 211.255 92.045 210.552 Q 91.468 209.848 90.568 209.848 Q 89.694 209.848 89.104 210.543 Q 88.514 211.238 88.514 212.619 Z M 96.909 212.689 Q 96.909 211.465 97.512 210.32 Q 98.115 209.175 99.22 208.572 Q 100.326 207.969 101.689 207.969 Q 103.796 207.969 105.142 209.337 Q 106.488 210.705 106.488 212.794 Q 106.488 214.9 105.129 216.285 Q 103.77 217.671 101.707 217.671 Q 100.431 217.671 99.273 217.094 Q 98.115 216.517 97.512 215.403 Q 96.909 214.288 96.909 212.689 Z M 99.426 212.82 Q 99.426 214.201 100.081 214.935 Q 100.737 215.669 101.698 215.669 Q 102.66 215.669 103.311 214.935 Q 103.962 214.201 103.962 212.802 Q 103.962 211.439 103.311 210.705 Q 102.66 209.971 101.698 209.971 Q 100.737 209.971 100.081 210.705 Q 99.426 211.439 99.426 212.82 Z M 113.396 217.461 L 113.396 204.648 L 122.896 204.648 L 122.896 206.815 L 115.983 206.815 L 115.983 209.656 L 122.415 209.656 L 122.415 211.815 L 115.983 211.815 L 115.983 215.302 L 123.141 215.302 L 123.141 217.461 Z M 125.141 208.179 L 127.405 208.179 L 127.405 209.446 Q 128.62 207.969 130.298 207.969 Q 131.189 207.969 131.845 208.336 Q 132.501 208.703 132.92 209.446 Q 133.532 208.703 134.24 208.336 Q 134.948 207.969 135.752 207.969 Q 136.774 207.969 137.482 208.384 Q 138.19 208.799 138.54 209.604 Q 138.793 210.198 138.793 211.526 L 138.793 217.461 L 136.337 217.461 L 136.337 212.156 Q 136.337 210.775 136.084 210.373 Q 135.743 209.848 135.035 209.848 Q 134.52 209.848 134.065 210.163 Q 133.611 210.478 133.41 211.085 Q 133.208 211.692 133.208 213.003 L 133.208 217.461 L 130.752 217.461 L 130.752 212.374 Q 130.752 211.019 130.621 210.626 Q 130.49 210.233 130.215 210.041 Q 129.94 209.848 129.468 209.848 Q 128.9 209.848 128.445 210.154 Q 127.991 210.46 127.794 211.037 Q 127.597 211.614 127.597 212.951 L 127.597 217.461 L 125.141 217.461 Z M 141.173 208.179 L 143.463 208.179 L 143.463 209.542 Q 143.909 208.843 144.669 208.406 Q 145.429 207.969 146.356 207.969 Q 147.973 207.969 149.1 209.236 Q 150.228 210.504 150.228 212.767 Q 150.228 215.092 149.091 216.382 Q 147.955 217.671 146.338 217.671 Q 145.569 217.671 144.944 217.365 Q 144.319 217.059 143.629 216.316 L 143.629 220.992 L 141.173 220.992 Z M 143.603 212.663 Q 143.603 214.227 144.223 214.974 Q 144.844 215.722 145.735 215.722 Q 146.592 215.722 147.16 215.036 Q 147.728 214.349 147.728 212.785 Q 147.728 211.325 147.142 210.617 Q 146.557 209.909 145.692 209.909 Q 144.791 209.909 144.197 210.604 Q 143.603 211.299 143.603 212.663 Z M 154.515 217.461 L 152.059 217.461 L 152.059 208.179 L 154.34 208.179 L 154.34 209.499 Q 154.925 208.563 155.393 208.266 Q 155.861 207.969 156.455 207.969 Q 157.294 207.969 158.072 208.432 L 157.312 210.574 Q 156.691 210.172 156.158 210.172 Q 155.642 210.172 155.284 210.456 Q 154.925 210.74 154.72 211.483 Q 154.515 212.226 154.515 214.594 Z M 164.505 214.507 L 166.952 214.918 Q 166.48 216.264 165.462 216.967 Q 164.444 217.671 162.914 217.671 Q 160.493 217.671 159.331 216.089 Q 158.413 214.821 158.413 212.89 Q 158.413 210.582 159.619 209.276 Q 160.825 207.969 162.67 207.969 Q 164.741 207.969 165.938 209.337 Q 167.136 210.705 167.083 213.528 L 160.93 213.528 Q 160.956 214.62 161.525 215.228 Q 162.093 215.835 162.94 215.835 Q 163.517 215.835 163.911 215.521 Q 164.304 215.206 164.505 214.507 Z M 164.645 212.025 Q 164.619 210.958 164.094 210.403 Q 163.57 209.848 162.818 209.848 Q 162.014 209.848 161.49 210.434 Q 160.965 211.019 160.974 212.025 Z M 174.466 214.507 L 176.913 214.918 Q 176.441 216.264 175.423 216.967 Q 174.405 217.671 172.875 217.671 Q 170.454 217.671 169.292 216.089 Q 168.374 214.821 168.374 212.89 Q 168.374 210.582 169.58 209.276 Q 170.786 207.969 172.631 207.969 Q 174.702 207.969 175.9 209.337 Q 177.097 210.705 177.044 213.528 L 170.891 213.528 Q 170.918 214.62 171.486 215.228 Q 172.054 215.835 172.902 215.835 Q 173.478 215.835 173.872 215.521 Q 174.265 215.206 174.466 214.507 Z M 174.606 212.025 Q 174.58 210.958 174.055 210.403 Q 173.531 209.848 172.779 209.848 Q 171.975 209.848 171.451 210.434 Q 170.926 211.019 170.935 212.025 Z M 187.479 217.461 L 185.023 217.461 L 185.023 212.724 Q 185.023 211.22 184.865 210.779 Q 184.708 210.338 184.354 210.093 Q 184 209.848 183.502 209.848 Q 182.864 209.848 182.357 210.198 Q 181.85 210.547 181.662 211.124 Q 181.474 211.701 181.474 213.257 L 181.474 217.461 L 179.018 217.461 L 179.018 208.179 L 181.299 208.179 L 181.299 209.542 Q 182.514 207.969 184.358 207.969 Q 185.171 207.969 185.844 208.262 Q 186.517 208.555 186.862 209.009 Q 187.208 209.464 187.343 210.041 Q 187.479 210.617 187.479 211.692 Z M 198.486 217.461 L 196.205 217.461 L 196.205 216.098 Q 195.637 216.893 194.863 217.282 Q 194.089 217.671 193.303 217.671 Q 191.703 217.671 190.563 216.382 Q 189.422 215.092 189.422 212.785 Q 189.422 210.425 190.532 209.197 Q 191.642 207.969 193.338 207.969 Q 194.894 207.969 196.03 209.263 L 196.03 204.648 L 198.486 204.648 Z M 191.931 212.619 Q 191.931 214.105 192.341 214.769 Q 192.936 215.73 194.002 215.73 Q 194.85 215.73 195.444 215.009 Q 196.039 214.288 196.039 212.855 Q 196.039 211.255 195.462 210.552 Q 194.885 209.848 193.985 209.848 Q 193.111 209.848 192.521 210.543 Q 191.931 211.238 191.931 212.619 Z M 206.285 214.507 L 208.733 214.918 Q 208.261 216.264 207.243 216.967 Q 206.224 217.671 204.695 217.671 Q 202.274 217.671 201.111 216.089 Q 200.194 214.821 200.194 212.89 Q 200.194 210.582 201.4 209.276 Q 202.606 207.969 204.45 207.969 Q 206.521 207.969 207.719 209.337 Q 208.916 210.705 208.864 213.528 L 202.711 213.528 Q 202.737 214.62 203.305 215.228 Q 203.873 215.835 204.721 215.835 Q 205.298 215.835 205.691 215.521 Q 206.084 215.206 206.285 214.507 Z M 206.425 212.025 Q 206.399 210.958 205.875 210.403 Q 205.35 209.848 204.599 209.848 Q 203.795 209.848 203.27 210.434 Q 202.746 211.019 202.754 212.025 Z M 219.368 217.461 L 217.087 217.461 L 217.087 216.098 Q 216.518 216.893 215.745 217.282 Q 214.971 217.671 214.185 217.671 Q 212.585 217.671 211.445 216.382 Q 210.304 215.092 210.304 212.785 Q 210.304 210.425 211.414 209.197 Q 212.524 207.969 214.22 207.969 Q 215.776 207.969 216.912 209.263 L 216.912 204.648 L 219.368 204.648 Z M 212.813 212.619 Q 212.813 214.105 213.223 214.769 Q 213.818 215.73 214.884 215.73 Q 215.732 215.73 216.326 215.009 Q 216.921 214.288 216.921 212.855 Q 216.921 211.255 216.344 210.552 Q 215.767 209.848 214.867 209.848 Q 213.993 209.848 213.403 210.543 Q 212.813 211.238 212.813 212.619 Z M 221.224 212.689 Q 221.224 211.465 221.827 210.32 Q 222.43 209.175 223.536 208.572 Q 224.642 207.969 226.005 207.969 Q 228.111 207.969 229.457 209.337 Q 230.803 210.705 230.803 212.794 Q 230.803 214.9 229.444 216.285 Q 228.085 217.671 226.022 217.671 Q 224.746 217.671 223.588 217.094 Q 222.43 216.517 221.827 215.403 Q 221.224 214.288 221.224 212.689 Z M 223.741 212.82 Q 223.741 214.201 224.397 214.935 Q 225.052 215.669 226.014 215.669 Q 226.975 215.669 227.626 214.935 Q 228.277 214.201 228.277 212.802 Q 228.277 211.439 227.626 210.705 Q 226.975 209.971 226.014 209.971 Q 225.052 209.971 224.397 210.705 Q 223.741 211.439 223.741 212.82 Z M 235.064 217.461 L 232.608 217.461 L 232.608 208.179 L 234.889 208.179 L 234.889 209.499 Q 235.475 208.563 235.943 208.266 Q 236.41 207.969 237.004 207.969 Q 237.844 207.969 238.621 208.432 L 237.861 210.574 Q 237.24 210.172 236.707 210.172 Q 236.192 210.172 235.833 210.456 Q 235.475 210.74 235.27 211.483 Q 235.064 212.226 235.064 214.594 Z M 253.173 217.461 L 250.892 217.461 L 250.892 216.098 Q 250.323 216.893 249.55 217.282 Q 248.776 217.671 247.99 217.671 Q 246.39 217.671 245.25 216.382 Q 244.109 215.092 244.109 212.785 Q 244.109 210.425 245.219 209.197 Q 246.329 207.969 248.025 207.969 Q 249.581 207.969 250.717 209.263 L 250.717 204.648 L 253.173 204.648 Z M 246.618 212.619 Q 246.618 214.105 247.028 214.769 Q 247.623 215.73 248.689 215.73 Q 249.537 215.73 250.131 215.009 Q 250.725 214.288 250.725 212.855 Q 250.725 211.255 250.149 210.552 Q 249.572 209.848 248.672 209.848 Q 247.798 209.848 247.208 210.543 Q 246.618 211.238 246.618 212.619 Z M 260.972 214.507 L 263.42 214.918 Q 262.948 216.264 261.929 216.967 Q 260.911 217.671 259.382 217.671 Q 256.961 217.671 255.798 216.089 Q 254.88 214.821 254.88 212.89 Q 254.88 210.582 256.087 209.276 Q 257.293 207.969 259.137 207.969 Q 261.208 207.969 262.406 209.337 Q 263.603 210.705 263.551 213.528 L 257.398 213.528 Q 257.424 214.62 257.992 215.228 Q 258.56 215.835 259.408 215.835 Q 259.985 215.835 260.378 215.521 Q 260.771 215.206 260.972 214.507 Z M 261.112 212.025 Q 261.086 210.958 260.562 210.403 Q 260.037 209.848 259.286 209.848 Q 258.481 209.848 257.957 210.434 Q 257.433 211.019 257.441 212.025 Z" transform="matrix(0.90785, 0, 0, 0.979397, 22.673103, 63.878307)" style="fill: rgb(255, 255, 255); white-space: pre;"/>
  <path transform="matrix(0.90785, 0, 0, 0.979397, 22.673103, 63.878307)" style="fill: rgb(51, 51, 51); white-space: pre;"/>
  <path d="M 270.626 217.461 L 270.626 204.753 L 273.213 204.753 L 273.213 215.302 L 279.646 215.302 L 279.646 217.461 Z M 283.295 211.011 L 281.066 210.609 Q 281.442 209.263 282.36 208.616 Q 283.278 207.969 285.087 207.969 Q 286.73 207.969 287.534 208.358 Q 288.338 208.747 288.666 209.346 Q 288.994 209.944 288.994 211.544 L 288.968 214.411 Q 288.968 215.634 289.086 216.216 Q 289.204 216.797 289.527 217.461 L 287.097 217.461 Q 287.001 217.216 286.861 216.736 Q 286.8 216.517 286.774 216.447 Q 286.144 217.059 285.428 217.365 Q 284.711 217.671 283.898 217.671 Q 282.465 217.671 281.639 216.893 Q 280.813 216.115 280.813 214.926 Q 280.813 214.14 281.189 213.524 Q 281.565 212.907 282.242 212.58 Q 282.919 212.252 284.195 212.007 Q 285.917 211.684 286.581 211.404 L 286.581 211.159 Q 286.581 210.451 286.232 210.15 Q 285.882 209.848 284.912 209.848 Q 284.257 209.848 283.889 210.106 Q 283.522 210.364 283.295 211.011 Z M 286.581 213.003 Q 286.109 213.161 285.087 213.379 Q 284.064 213.598 283.75 213.808 Q 283.269 214.148 283.269 214.673 Q 283.269 215.189 283.653 215.564 Q 284.038 215.94 284.632 215.94 Q 285.297 215.94 285.9 215.503 Q 286.345 215.171 286.485 214.69 Q 286.581 214.376 286.581 213.493 Z M 291.194 218.073 L 293.999 218.414 Q 294.069 218.903 294.323 219.087 Q 294.672 219.349 295.424 219.349 Q 296.385 219.349 296.866 219.06 Q 297.189 218.868 297.355 218.44 Q 297.469 218.134 297.469 217.312 L 297.469 215.958 Q 296.368 217.461 294.69 217.461 Q 292.819 217.461 291.727 215.879 Q 290.87 214.629 290.87 212.767 Q 290.87 210.434 291.993 209.201 Q 293.116 207.969 294.786 207.969 Q 296.508 207.969 297.626 209.481 L 297.626 208.179 L 299.925 208.179 L 299.925 216.508 Q 299.925 218.151 299.654 218.964 Q 299.383 219.777 298.894 220.24 Q 298.404 220.704 297.587 220.966 Q 296.77 221.228 295.52 221.228 Q 293.16 221.228 292.172 220.42 Q 291.185 219.611 291.185 218.37 Q 291.185 218.248 291.194 218.073 Z M 293.387 212.628 Q 293.387 214.105 293.96 214.791 Q 294.532 215.477 295.371 215.477 Q 296.272 215.477 296.892 214.773 Q 297.513 214.07 297.513 212.689 Q 297.513 211.247 296.918 210.547 Q 296.324 209.848 295.415 209.848 Q 294.532 209.848 293.96 210.534 Q 293.387 211.22 293.387 212.628 Z M 301.774 212.689 Q 301.774 211.465 302.377 210.32 Q 302.98 209.175 304.085 208.572 Q 305.191 207.969 306.554 207.969 Q 308.661 207.969 310.007 209.337 Q 311.353 210.705 311.353 212.794 Q 311.353 214.9 309.994 216.285 Q 308.635 217.671 306.572 217.671 Q 305.296 217.671 304.138 217.094 Q 302.98 216.517 302.377 215.403 Q 301.774 214.288 301.774 212.689 Z M 304.291 212.82 Q 304.291 214.201 304.946 214.935 Q 305.602 215.669 306.563 215.669 Q 307.525 215.669 308.176 214.935 Q 308.827 214.201 308.827 212.802 Q 308.827 211.439 308.176 210.705 Q 307.525 209.971 306.563 209.971 Q 305.602 209.971 304.946 210.705 Q 304.291 211.439 304.291 212.82 Z M 315.114 211.011 L 312.886 210.609 Q 313.262 209.263 314.179 208.616 Q 315.097 207.969 316.906 207.969 Q 318.549 207.969 319.353 208.358 Q 320.158 208.747 320.485 209.346 Q 320.813 209.944 320.813 211.544 L 320.787 214.411 Q 320.787 215.634 320.905 216.216 Q 321.023 216.797 321.346 217.461 L 318.916 217.461 Q 318.82 217.216 318.68 216.736 Q 318.619 216.517 318.593 216.447 Q 317.964 217.059 317.247 217.365 Q 316.53 217.671 315.718 217.671 Q 314.284 217.671 313.458 216.893 Q 312.632 216.115 312.632 214.926 Q 312.632 214.14 313.008 213.524 Q 313.384 212.907 314.061 212.58 Q 314.739 212.252 316.015 212.007 Q 317.737 211.684 318.401 211.404 L 318.401 211.159 Q 318.401 210.451 318.051 210.15 Q 317.702 209.848 316.731 209.848 Q 316.076 209.848 315.709 210.106 Q 315.342 210.364 315.114 211.011 Z M 318.401 213.003 Q 317.929 213.161 316.906 213.379 Q 315.884 213.598 315.569 213.808 Q 315.088 214.148 315.088 214.673 Q 315.088 215.189 315.473 215.564 Q 315.857 215.94 316.452 215.94 Q 317.116 215.94 317.719 215.503 Q 318.165 215.171 318.305 214.69 Q 318.401 214.376 318.401 213.493 Z M 336.717 217.461 L 334.436 217.461 L 334.436 216.098 Q 333.868 216.893 333.094 217.282 Q 332.321 217.671 331.534 217.671 Q 329.935 217.671 328.794 216.382 Q 327.654 215.092 327.654 212.785 Q 327.654 210.425 328.764 209.197 Q 329.874 207.969 331.569 207.969 Q 333.125 207.969 334.261 209.263 L 334.261 204.648 L 336.717 204.648 Z M 330.162 212.619 Q 330.162 214.105 330.573 214.769 Q 331.167 215.73 332.233 215.73 Q 333.081 215.73 333.676 215.009 Q 334.27 214.288 334.27 212.855 Q 334.27 211.255 333.693 210.552 Q 333.116 209.848 332.216 209.848 Q 331.342 209.848 330.752 210.543 Q 330.162 211.238 330.162 212.619 Z M 338.573 212.689 Q 338.573 211.465 339.176 210.32 Q 339.78 209.175 340.885 208.572 Q 341.991 207.969 343.354 207.969 Q 345.461 207.969 346.807 209.337 Q 348.153 210.705 348.153 212.794 Q 348.153 214.9 346.794 216.285 Q 345.435 217.671 343.372 217.671 Q 342.096 217.671 340.938 217.094 Q 339.78 216.517 339.176 215.403 Q 338.573 214.288 338.573 212.689 Z M 341.091 212.82 Q 341.091 214.201 341.746 214.935 Q 342.402 215.669 343.363 215.669 Q 344.324 215.669 344.976 214.935 Q 345.627 214.201 345.627 212.802 Q 345.627 211.439 344.976 210.705 Q 344.324 209.971 343.363 209.971 Q 342.402 209.971 341.746 210.705 Q 341.091 211.439 341.091 212.82 Z M 349.197 214.813 L 351.662 214.437 Q 351.819 215.154 352.3 215.525 Q 352.781 215.896 353.646 215.896 Q 354.599 215.896 355.079 215.547 Q 355.403 215.302 355.403 214.891 Q 355.403 214.612 355.228 214.428 Q 355.044 214.253 354.406 214.105 Q 351.435 213.449 350.639 212.907 Q 349.538 212.156 349.538 210.818 Q 349.538 209.612 350.491 208.791 Q 351.443 207.969 353.445 207.969 Q 355.35 207.969 356.277 208.59 Q 357.203 209.21 357.553 210.425 L 355.237 210.853 Q 355.088 210.311 354.673 210.023 Q 354.258 209.735 353.489 209.735 Q 352.518 209.735 352.099 210.006 Q 351.819 210.198 351.819 210.504 Q 351.819 210.766 352.064 210.95 Q 352.396 211.194 354.358 211.64 Q 356.32 212.086 357.098 212.733 Q 357.867 213.388 357.867 214.559 Q 357.867 215.835 356.801 216.753 Q 355.735 217.671 353.646 217.671 Q 351.749 217.671 350.644 216.902 Q 349.538 216.132 349.197 214.813 Z M 365.022 217.461 L 365.022 204.648 L 369.173 204.648 Q 371.533 204.648 372.25 204.84 Q 373.351 205.129 374.094 206.094 Q 374.837 207.06 374.837 208.59 Q 374.837 209.77 374.409 210.574 Q 373.98 211.378 373.32 211.837 Q 372.661 212.296 371.979 212.444 Q 371.052 212.628 369.296 212.628 L 367.609 212.628 L 367.609 217.461 Z M 367.609 206.815 L 367.609 210.451 L 369.025 210.451 Q 370.554 210.451 371.07 210.25 Q 371.585 210.049 371.878 209.621 Q 372.171 209.193 372.171 208.625 Q 372.171 207.925 371.76 207.471 Q 371.349 207.016 370.72 206.903 Q 370.257 206.815 368.859 206.815 Z M 378.77 211.011 L 376.541 210.609 Q 376.917 209.263 377.835 208.616 Q 378.752 207.969 380.561 207.969 Q 382.205 207.969 383.009 208.358 Q 383.813 208.747 384.141 209.346 Q 384.468 209.944 384.468 211.544 L 384.442 214.411 Q 384.442 215.634 384.56 216.216 Q 384.678 216.797 385.001 217.461 L 382.572 217.461 Q 382.476 217.216 382.336 216.736 Q 382.275 216.517 382.248 216.447 Q 381.619 217.059 380.902 217.365 Q 380.186 217.671 379.373 217.671 Q 377.939 217.671 377.113 216.893 Q 376.287 216.115 376.287 214.926 Q 376.287 214.14 376.663 213.524 Q 377.039 212.907 377.717 212.58 Q 378.394 212.252 379.67 212.007 Q 381.392 211.684 382.056 211.404 L 382.056 211.159 Q 382.056 210.451 381.706 210.15 Q 381.357 209.848 380.387 209.848 Q 379.731 209.848 379.364 210.106 Q 378.997 210.364 378.77 211.011 Z M 382.056 213.003 Q 381.584 213.161 380.561 213.379 Q 379.539 213.598 379.224 213.808 Q 378.743 214.148 378.743 214.673 Q 378.743 215.189 379.128 215.564 Q 379.513 215.94 380.107 215.94 Q 380.771 215.94 381.374 215.503 Q 381.82 215.171 381.96 214.69 Q 382.056 214.376 382.056 213.493 Z M 391.135 208.179 L 391.135 210.137 L 389.457 210.137 L 389.457 213.878 Q 389.457 215.014 389.505 215.202 Q 389.553 215.39 389.724 215.512 Q 389.894 215.634 390.139 215.634 Q 390.48 215.634 391.127 215.398 L 391.336 217.304 Q 390.48 217.671 389.396 217.671 Q 388.732 217.671 388.199 217.448 Q 387.665 217.225 387.416 216.871 Q 387.167 216.517 387.071 215.914 Q 386.992 215.486 386.992 214.183 L 386.992 210.137 L 385.865 210.137 L 385.865 208.179 L 386.992 208.179 L 386.992 206.335 L 389.457 204.901 L 389.457 208.179 Z M 392.284 212.689 Q 392.284 211.465 392.887 210.32 Q 393.49 209.175 394.596 208.572 Q 395.702 207.969 397.065 207.969 Q 399.171 207.969 400.517 209.337 Q 401.863 210.705 401.863 212.794 Q 401.863 214.9 400.504 216.285 Q 399.145 217.671 397.082 217.671 Q 395.806 217.671 394.648 217.094 Q 393.49 216.517 392.887 215.403 Q 392.284 214.288 392.284 212.689 Z M 394.801 212.82 Q 394.801 214.201 395.457 214.935 Q 396.112 215.669 397.074 215.669 Q 398.035 215.669 398.686 214.935 Q 399.337 214.201 399.337 212.802 Q 399.337 211.439 398.686 210.705 Q 398.035 209.971 397.074 209.971 Q 396.112 209.971 395.457 210.705 Q 394.801 211.439 394.801 212.82 Z M 402.908 214.813 L 405.372 214.437 Q 405.53 215.154 406.011 215.525 Q 406.491 215.896 407.357 215.896 Q 408.309 215.896 408.79 215.547 Q 409.113 215.302 409.113 214.891 Q 409.113 214.612 408.939 214.428 Q 408.755 214.253 408.117 214.105 Q 405.145 213.449 404.35 212.907 Q 403.249 212.156 403.249 210.818 Q 403.249 209.612 404.201 208.791 Q 405.154 207.969 407.156 207.969 Q 409.061 207.969 409.987 208.59 Q 410.914 209.21 411.263 210.425 L 408.947 210.853 Q 408.799 210.311 408.384 210.023 Q 407.968 209.735 407.199 209.735 Q 406.229 209.735 405.81 210.006 Q 405.53 210.198 405.53 210.504 Q 405.53 210.766 405.775 210.95 Q 406.107 211.194 408.069 211.64 Q 410.031 212.086 410.809 212.733 Q 411.578 213.388 411.578 214.559 Q 411.578 215.835 410.512 216.753 Q 409.445 217.671 407.357 217.671 Q 405.46 217.671 404.354 216.902 Q 403.249 216.132 402.908 214.813 Z M 413.017 214.044 L 413.017 211.588 L 417.842 211.588 L 417.842 214.044 Z M 419.674 217.461 L 419.674 204.648 L 423.545 204.648 L 425.87 213.388 L 428.169 204.648 L 432.05 204.648 L 432.05 217.461 L 429.646 217.461 L 429.646 207.375 L 427.103 217.461 L 424.612 217.461 L 422.077 207.375 L 422.077 217.461 Z M 440.578 212.75 L 440.578 210.591 L 446.154 210.591 L 446.154 215.695 Q 445.341 216.482 443.799 217.081 Q 442.256 217.68 440.674 217.68 Q 438.664 217.68 437.169 216.836 Q 435.675 215.993 434.923 214.424 Q 434.171 212.855 434.171 211.011 Q 434.171 209.009 435.01 207.453 Q 435.849 205.898 437.466 205.067 Q 438.699 204.429 440.534 204.429 Q 442.92 204.429 444.262 205.43 Q 445.604 206.431 445.988 208.196 L 443.418 208.677 Q 443.148 207.733 442.4 207.187 Q 441.653 206.641 440.534 206.641 Q 438.839 206.641 437.838 207.716 Q 436.837 208.791 436.837 210.906 Q 436.837 213.187 437.851 214.328 Q 438.865 215.468 440.508 215.468 Q 441.321 215.468 442.138 215.149 Q 442.955 214.83 443.541 214.376 L 443.541 212.75 Z" transform="matrix(0.90785, 0, 0, 0.979397, 22.673103, 63.878307)" style="fill: rgb(233, 112, 0); white-space: pre;"/>
  <path d="M 285.651 173.587 L 288.168 173.342 Q 288.395 174.61 289.09 175.204 Q 289.785 175.798 290.965 175.798 Q 292.215 175.798 292.848 175.269 Q 293.482 174.741 293.482 174.033 Q 293.482 173.578 293.215 173.259 Q 292.949 172.94 292.285 172.704 Q 291.83 172.547 290.213 172.145 Q 288.133 171.629 287.294 170.877 Q 286.114 169.82 286.114 168.299 Q 286.114 167.32 286.669 166.468 Q 287.224 165.616 288.268 165.17 Q 289.313 164.724 290.79 164.724 Q 293.202 164.724 294.422 165.782 Q 295.641 166.839 295.702 168.605 L 293.115 168.719 Q 292.949 167.731 292.403 167.298 Q 291.856 166.866 290.764 166.866 Q 289.636 166.866 288.998 167.329 Q 288.587 167.626 288.587 168.124 Q 288.587 168.579 288.972 168.902 Q 289.462 169.313 291.349 169.759 Q 293.237 170.204 294.142 170.681 Q 295.047 171.157 295.558 171.983 Q 296.069 172.809 296.069 174.024 Q 296.069 175.125 295.457 176.087 Q 294.846 177.048 293.727 177.516 Q 292.608 177.983 290.939 177.983 Q 288.509 177.983 287.207 176.86 Q 285.904 175.737 285.651 173.587 Z M 309.798 177.756 L 306.984 177.756 L 305.865 174.845 L 300.743 174.845 L 299.686 177.756 L 296.941 177.756 L 301.932 164.943 L 304.668 164.943 Z M 305.035 172.687 L 303.269 167.932 L 301.539 172.687 Z M 311.236 177.756 L 311.236 165.048 L 313.823 165.048 L 313.823 175.597 L 320.256 175.597 L 320.256 177.756 Z M 333.657 177.756 L 330.843 177.756 L 329.724 174.845 L 324.602 174.845 L 323.545 177.756 L 320.8 177.756 L 325.791 164.943 L 328.526 164.943 Z M 328.894 172.687 L 327.128 167.932 L 325.397 172.687 Z" transform="matrix(2.626981, 0, 0, 3.355219, -648.613647, -337.649384)" style="fill: rgb(255, 255, 255); white-space: pre;"/>
  <rect x="211.3" y="318.299" width="107.731" height="30.983" style="stroke: rgb(0, 0, 0); fill: rgb(255, 255, 255);" rx="9.222" ry="9.222"/>
  <path d="M 241.917 333.768 C 241.917 334.808 241.805 335.824 241.593 336.8 C 236.23 332.211 226.055 324.777 216.596 324.934 C 219.198 321.663 223.212 319.566 227.716 319.566 C 235.559 319.566 241.917 325.924 241.917 333.768 Z M 227.716 347.969 C 220.488 347.969 214.522 342.57 213.63 335.584 C 219.003 336.683 226.301 339.564 233.377 346.796 C 231.644 347.551 229.729 347.969 227.716 347.969 Z M 214.942 327.554 C 219.473 327.541 230.355 328.758 240.764 339.383 C 239.688 341.879 237.917 344.005 235.695 345.518 C 231.599 341.822 222.634 334.571 213.551 332.748 C 213.682 330.896 214.169 329.142 214.942 327.554 Z" style="stroke: rgb(0, 0, 0); fill: url(#gradient-0); stroke-opacity: 0; paint-order: fill; transform-origin: 227.734px 333.768px;"/>
  <path d="M 245.279 333.16 L 245.279 322.781 L 252.395 322.781 L 252.395 324.536 L 247.375 324.536 L 247.375 326.993 L 251.708 326.993 L 251.708 328.749 L 247.375 328.749 L 247.375 333.16 Z M 254.101 322.781 L 256.196 322.781 L 256.196 328.402 Q 256.196 329.74 256.274 330.137 Q 256.409 330.774 256.915 331.16 Q 257.421 331.546 258.299 331.546 Q 259.191 331.546 259.644 331.181 Q 260.098 330.816 260.19 330.285 Q 260.282 329.754 260.282 328.523 L 260.282 322.781 L 262.377 322.781 L 262.377 328.232 Q 262.377 330.101 262.207 330.873 Q 262.037 331.645 261.581 332.176 Q 261.124 332.707 260.359 333.022 Q 259.595 333.337 258.363 333.337 Q 256.876 333.337 256.108 332.994 Q 255.34 332.65 254.894 332.102 Q 254.448 331.553 254.306 330.951 Q 254.101 330.059 254.101 328.317 Z M 266.913 333.16 L 266.913 324.536 L 263.833 324.536 L 263.833 322.781 L 272.081 322.781 L 272.081 324.536 L 269.008 324.536 L 269.008 333.16 Z M 273.412 322.781 L 275.508 322.781 L 275.508 328.402 Q 275.508 329.74 275.585 330.137 Q 275.72 330.774 276.226 331.16 Q 276.732 331.546 277.61 331.546 Q 278.502 331.546 278.956 331.181 Q 279.409 330.816 279.501 330.285 Q 279.593 329.754 279.593 328.523 L 279.593 322.781 L 281.689 322.781 L 281.689 328.232 Q 281.689 330.101 281.519 330.873 Q 281.349 331.645 280.892 332.176 Q 280.435 332.707 279.671 333.022 Q 278.906 333.337 277.674 333.337 Q 276.187 333.337 275.419 332.994 Q 274.651 332.65 274.205 332.102 Q 273.759 331.553 273.617 330.951 Q 273.412 330.059 273.412 328.317 Z M 283.907 333.16 L 283.907 322.781 L 288.318 322.781 Q 289.982 322.781 290.736 323.06 Q 291.49 323.34 291.943 324.055 Q 292.396 324.77 292.396 325.691 Q 292.396 326.859 291.709 327.62 Q 291.022 328.381 289.656 328.579 Q 290.336 328.976 290.778 329.45 Q 291.221 329.924 291.971 331.135 L 293.238 333.16 L 290.732 333.16 L 289.217 330.901 Q 288.41 329.691 288.112 329.376 Q 287.815 329.061 287.482 328.944 Q 287.149 328.827 286.427 328.827 L 286.003 328.827 L 286.003 333.16 Z M 286.003 327.17 L 287.553 327.17 Q 289.061 327.17 289.436 327.043 Q 289.812 326.915 290.024 326.604 Q 290.236 326.292 290.236 325.825 Q 290.236 325.301 289.957 324.979 Q 289.677 324.657 289.167 324.572 Q 288.912 324.536 287.638 324.536 L 286.003 324.536 Z M 293.936 328.034 Q 293.936 326.448 294.411 325.372 Q 294.765 324.579 295.377 323.949 Q 295.989 323.319 296.719 323.014 Q 297.689 322.604 298.956 322.604 Q 301.25 322.604 302.627 324.027 Q 304.004 325.45 304.004 327.984 Q 304.004 330.498 302.638 331.917 Q 301.271 333.337 298.984 333.337 Q 296.669 333.337 295.303 331.925 Q 293.936 330.512 293.936 328.034 Z M 296.096 327.963 Q 296.096 329.726 296.91 330.636 Q 297.724 331.546 298.977 331.546 Q 300.23 331.546 301.034 330.643 Q 301.838 329.74 301.838 327.935 Q 301.838 326.151 301.055 325.273 Q 300.273 324.395 298.977 324.395 Q 297.682 324.395 296.889 325.283 Q 296.096 326.172 296.096 327.963 Z" transform="matrix(1.148424, 0, 0, 1.363598, -36.246475, -116.393677)" style="fill: rgb(23, 49, 58); paint-order: fill; white-space: pre;"/>
  <path d="M 259.198 345.515 L 259.7 345.642 Q 259.542 346.26 259.132 346.585 Q 258.722 346.91 258.129 346.91 Q 257.516 346.91 257.131 346.66 Q 256.747 346.41 256.547 345.937 Q 256.346 345.463 256.346 344.92 Q 256.346 344.327 256.572 343.886 Q 256.799 343.445 257.217 343.215 Q 257.635 342.986 258.137 342.986 Q 258.706 342.986 259.094 343.276 Q 259.482 343.566 259.635 344.091 L 259.141 344.208 Q 259.009 343.794 258.758 343.605 Q 258.507 343.416 258.126 343.416 Q 257.689 343.416 257.395 343.626 Q 257.102 343.835 256.983 344.189 Q 256.864 344.542 256.864 344.917 Q 256.864 345.401 257.005 345.762 Q 257.146 346.123 257.443 346.302 Q 257.741 346.48 258.088 346.48 Q 258.509 346.48 258.802 346.237 Q 259.094 345.994 259.198 345.515 Z M 260.16 344.997 Q 260.16 344.053 260.668 343.518 Q 261.175 342.984 261.977 342.984 Q 262.502 342.984 262.924 343.235 Q 263.346 343.486 263.567 343.935 Q 263.789 344.384 263.789 344.953 Q 263.789 345.53 263.556 345.986 Q 263.323 346.441 262.896 346.675 Q 262.469 346.91 261.974 346.91 Q 261.439 346.91 261.017 346.651 Q 260.595 346.392 260.378 345.944 Q 260.16 345.497 260.16 344.997 Z M 260.678 345.005 Q 260.678 345.691 261.047 346.085 Q 261.416 346.48 261.972 346.48 Q 262.539 346.48 262.905 346.082 Q 263.271 345.683 263.271 344.951 Q 263.271 344.487 263.114 344.142 Q 262.958 343.796 262.656 343.606 Q 262.355 343.416 261.98 343.416 Q 261.447 343.416 261.062 343.782 Q 260.678 344.148 260.678 345.005 Z M 264.427 346.845 L 264.427 343.051 L 264.942 343.051 L 266.934 346.03 L 266.934 343.051 L 267.416 343.051 L 267.416 346.845 L 266.901 346.845 L 264.908 343.864 L 264.908 346.845 Z M 268.094 345.626 L 268.567 345.585 Q 268.601 345.869 268.724 346.052 Q 268.847 346.234 269.106 346.347 Q 269.364 346.459 269.688 346.459 Q 269.975 346.459 270.195 346.374 Q 270.415 346.289 270.522 346.14 Q 270.63 345.991 270.63 345.815 Q 270.63 345.636 270.526 345.503 Q 270.423 345.37 270.185 345.279 Q 270.032 345.22 269.509 345.094 Q 268.986 344.969 268.777 344.858 Q 268.505 344.715 268.372 344.504 Q 268.239 344.293 268.239 344.032 Q 268.239 343.745 268.402 343.495 Q 268.565 343.245 268.878 343.116 Q 269.191 342.986 269.574 342.986 Q 269.996 342.986 270.318 343.122 Q 270.64 343.258 270.814 343.522 Q 270.987 343.786 271 344.12 L 270.519 344.156 Q 270.48 343.796 270.256 343.613 Q 270.032 343.429 269.595 343.429 Q 269.139 343.429 268.931 343.596 Q 268.723 343.763 268.723 343.998 Q 268.723 344.203 268.87 344.335 Q 269.015 344.467 269.627 344.605 Q 270.239 344.744 270.467 344.847 Q 270.798 345 270.956 345.234 Q 271.114 345.468 271.114 345.774 Q 271.114 346.076 270.94 346.344 Q 270.767 346.612 270.442 346.761 Q 270.117 346.91 269.711 346.91 Q 269.196 346.91 268.848 346.76 Q 268.5 346.61 268.302 346.308 Q 268.104 346.007 268.094 345.626 Z M 274.28 343.051 L 274.782 343.051 L 274.782 345.243 Q 274.782 345.815 274.652 346.151 Q 274.523 346.488 274.185 346.699 Q 273.848 346.91 273.299 346.91 Q 272.766 346.91 272.427 346.726 Q 272.088 346.542 271.943 346.194 Q 271.798 345.846 271.798 345.243 L 271.798 343.051 L 272.3 343.051 L 272.3 345.241 Q 272.3 345.735 272.392 345.969 Q 272.484 346.203 272.708 346.33 Q 272.931 346.457 273.255 346.457 Q 273.809 346.457 274.044 346.206 Q 274.28 345.955 274.28 345.241 Z M 275.602 346.845 L 275.602 343.051 L 276.104 343.051 L 276.104 346.397 L 277.973 346.397 L 277.973 346.845 Z M 279.14 346.845 L 279.14 343.499 L 277.89 343.499 L 277.89 343.051 L 280.897 343.051 L 280.897 343.499 L 279.642 343.499 L 279.642 346.845 Z M 281.167 344.997 Q 281.167 344.053 281.674 343.518 Q 282.181 342.984 282.983 342.984 Q 283.509 342.984 283.93 343.235 Q 284.352 343.486 284.573 343.935 Q 284.795 344.384 284.795 344.953 Q 284.795 345.53 284.562 345.986 Q 284.329 346.441 283.902 346.675 Q 283.475 346.91 282.981 346.91 Q 282.445 346.91 282.023 346.651 Q 281.601 346.392 281.384 345.944 Q 281.167 345.497 281.167 344.997 Z M 281.684 345.005 Q 281.684 345.691 282.053 346.085 Q 282.422 346.48 282.978 346.48 Q 283.545 346.48 283.911 346.082 Q 284.277 345.683 284.277 344.951 Q 284.277 344.487 284.121 344.142 Q 283.964 343.796 283.663 343.606 Q 283.361 343.416 282.986 343.416 Q 282.453 343.416 282.068 343.782 Q 281.684 344.148 281.684 345.005 Z M 285.446 346.845 L 285.446 343.051 L 287.128 343.051 Q 287.635 343.051 287.899 343.153 Q 288.163 343.256 288.321 343.514 Q 288.479 343.773 288.479 344.086 Q 288.479 344.49 288.217 344.767 Q 287.956 345.044 287.41 345.119 Q 287.609 345.215 287.713 345.308 Q 287.933 345.51 288.129 345.812 L 288.789 346.845 L 288.158 346.845 L 287.656 346.056 Q 287.436 345.714 287.293 345.533 Q 287.151 345.352 287.038 345.279 Q 286.926 345.207 286.809 345.178 Q 286.724 345.16 286.53 345.16 L 285.948 345.16 L 285.948 346.845 Z M 285.948 344.726 L 287.027 344.726 Q 287.371 344.726 287.565 344.654 Q 287.759 344.583 287.86 344.427 Q 287.961 344.27 287.961 344.086 Q 287.961 343.817 287.766 343.644 Q 287.57 343.47 287.148 343.47 L 285.948 343.47 Z M 289.345 346.845 L 289.345 343.051 L 289.847 343.051 L 289.847 346.845 Z M 290.326 346.845 L 291.783 343.051 L 292.324 343.051 L 293.876 346.845 L 293.304 346.845 L 292.862 345.696 L 291.275 345.696 L 290.859 346.845 Z M 291.42 345.287 L 292.707 345.287 L 292.311 344.236 Q 292.129 343.758 292.041 343.45 Q 291.969 343.815 291.837 344.174 Z" transform="matrix(1.267379, 0, 0, 1.658172, -68.470993, -229.061615)" style="fill: rgb(51, 51, 51); paint-order: fill; white-space: pre;"/>
</svg>