<?xml version="1.0" encoding="utf-8"?>
<!-- Generator: Adobe Illustrator 25.2.0, SVG Export Plug-In . SVG Version: 6.00 Build 0)  -->
<svg version="1.1" id="Layer_1" xmlns="http://www.w3.org/2000/svg" xmlns:xlink="http://www.w3.org/1999/xlink" x="0px" y="0px"
	 viewBox="0 0 2318 1870.5" style="enable-background:new 0 0 2318 1870.5;" xml:space="preserve">
<style type="text/css">
	.st0{fill:#6B48FF;}
	.st1{fill:#33477F;}
	.st2{fill:#3C4E91;}
	.st3{opacity:0.2;fill:#FFFFFF;}
	.st4{fill:#151C28;}
	.st5{fill:#2D3B5D;}
	.st6{fill:#7D90EF;}
	.st7{opacity:0.4;fill:#FFFFFF;}
	.st8{fill:#FAF932;}
	.st9{opacity:0.9;}
	.st10{fill:#F4F4F4;}
	.st11{fill:#E5E5E5;}
	.st12{fill:#FFFFFF;}
	.st13{fill:#DDE7F0;}
	.st14{fill:#283558;}
	.st15{fill:#4E5EAF;}
</style>
<path class="st0" d="M194.5,314.1C359.3,135.2,586.9,106.4,830.4,75.6c219.3-27.7,515.2-65.1,830.8,89.7
	c29.3,14.4,626.5,319.4,656.4,917.9c4.7,93.7,17.5,372.3-153.8,561.5c-440.5,486.8-1890.3,136.9-2120.5-579.5
	C-29.8,838.1,7.3,517.4,194.5,314.1z"/>
<g>
	<path class="st1" d="M1486.9,1413c0,16.6-13.4,30-30,30H953.8c-16.6,0-69.3,0.2-85.7-19.9c-12-164.6-35.4-497.7-35.4-598.1
		c0-15.3,12.6-27.6,28.1-27.6h471.4c15.5,0,28.1,12.4,28.1,27.6L1486.9,1413z"/>
	<path class="st2" d="M1526.1,1413c0,16.6-13.4,30-30,30H993c-16.6,0-69.2,40.1-69.2,23.6c0,0-54.3-506.5-54.3-641.6
		c0-15.3,12.6-27.6,28.1-27.6H1369c15.5,0,28.1,12.4,28.1,27.6L1526.1,1413z"/>
</g>
<path class="st3" d="M2000.5,684h-215.8l-25.7-35.1h88.1c30.7,0,55.6-24.9,55.6-55.6c0-30.7-24.9-55.6-55.6-55.6h-83.3l32.2-39.3
	h204.5c30.7,0,55.6-24.9,55.6-55.6c0-30.7-24.9-55.6-55.6-55.6h-300.8c-30.7,0-55.6,24.9-55.6,55.6c0,30.7,24.9,55.6,55.6,55.6h74.6
	l-32.2,39.3h-195.9c-30.7,0-55.6,24.9-55.6,55.6c0,30.7,24.9,55.6,55.6,55.6h191.1L1763,684h-63.4c-30.7,0-55.6,24.9-55.6,55.6
	c0,30.7,24.9,55.6,55.6,55.6h79l-100.1,222.3L1800,795.2h200.5c30.7,0,55.6-24.9,55.6-55.6C2056.1,708.9,2031.2,684,2000.5,684z"/>
<g>
	<g>
		<g>
			<g>
				<g>
					<g>
						<g>
							<g id="_x30_4_3_x2F_4_2_">
								<g>
									<path class="st4" d="M1072.1,491.5c-3.2,176.7,137.5,322.5,314.2,325.7C1563,820.3,1708.8,679.7,1712,503
										c3.2-176.7-137.5-322.6-314.2-325.8C1221.1,174.1,1075.3,314.7,1072.1,491.5z"/>
									<path id="head_56_" class="st5" d="M1204.2,498.5c-51.9-14.1-124-4.9-140.5,82.2c-11.5,61-25.9,167,12.5,181.2
										c17,6.3,82.6,1.5,82.6,1.5l-20.3,98c52.2,28.4,125.2-23.4,125.2-23.4l-17.8-104.6C1245.8,733.5,1375.1,545,1204.2,498.5z"
										/>
									<path id="hair_18_" class="st4" d="M1305.5,495.6L1305.5,495.6c97.5,126.5-0.7,215.4-59.6,237.8
										c-20.2-18-35.2-48.5-35.2-48.5c-2.8-8.8,28.5-30.5,15.3-56.8c-9.1-18.3-25.8-26.2-39.4-12c-2.3,2.4-7.2,0.5-5.3-10.8
										c2.9-18,6.6-44.9-11.9-71.6c-19.1-27.6-38.8-41.3-66.2-25.6C1132.6,454.5,1260.6,452.2,1305.5,495.6z"/>
								</g>
							</g>
						</g>
					</g>
				</g>
			</g>
		</g>
	</g>
	<g id="fem_2_">
		<g>
			<path class="st6" d="M1595.3,1322.5c-10-39.4-121.6-364.8-147.9-400.7c-23.2-31.7-140.7-78.7-185.5-93.6
				c-28.7,24.6-92.9,27.1-117.2,2.9c-39.5,14.1-129.8,47-156.6,69.8c-60,51.1-193.3,265.9-232.5,392.5
				c-20.7,66.9,89.9,147.3,177.7,187.3c0,0-2-0.3-4.5,20.2c12.1,8.9,519.3-9,519.3-9C1488.4,1473.6,1631.2,1463.4,1595.3,1322.5z"/>
		</g>
		<path class="st5" d="M1008.1,1318.9c5.9,3.7,20.8,35.4,23.1,41c3.2,8-6.9,20.3-17.8,8.5c-8.7-9.4-17.5-18.8-17.5-18.8
			s17.5,31.7,21.3,37.7c3.8,5.9,5.8,16.6,1.5,20.2c-6.5,5.4-14.8,1.9-19.8-4.9c-5-6.8-25.3-29.9-25.3-29.9l23.4,43.1
			c0,0,4.2,10.2-3.1,14.9c-9.6,6.2-15.4-4.9-19.1-10.7c-3.7-5.7-23.8-31.5-23.8-31.5l-3.1,2.3c0,0,20.3,22.5,22.7,29.3
			c2.4,6.8-4.5,11.6-12.7,8.6c-5.5-2-24.8-19.7-24.8-19.7s-10.8-1.2-15.3-2.7c-4.6-1.6-9-4.9-11.4-8.2c-2.4-3.3,0.6-30.7,17.1-45.2
			c16.5-14.5,28.7-21.7,44.3-26.5C983.6,1321.4,1000,1313.8,1008.1,1318.9z"/>
	</g>
</g>
<g>
	<g>
		<path class="st7" d="M477,427.5c0,0,0.1,0,0.1,0c-0.2,0,61.8-80.7,61.8-112.6c0-24.1-10.6-48.6-31.6-55.3
			c-17.2-5.5-54.9-4.7-72.3,0c-21.3,5.8-31.6,31.1-31.6,55.3c0,32,61.3,112.6,61.5,112.6c-0.2,0-61.5,80.3-61.5,112.3
			c0,24.1,10.4,49.5,31.6,55.3c17.5,4.7,55.1,5.5,72.3,0c21-6.7,31.6-31.1,31.6-55.3c0-31.9-50.7-99.3-61.8-112.3
			C477.1,427.5,477,427.5,477,427.5z"/>
		<path class="st8" d="M434.9,595.1c17.5,4.7,55.1,5.5,72.3,0c15.4-4.9,25.2-19.3,29.3-36.1c-28.4-18-54.2-39.2-65.5-39.2
			c-12.8,0-38.2,20.6-65.8,37.9C409.1,575.3,419,590.7,434.9,595.1z"/>
		<path class="st8" d="M477.1,427.5c-0.1,0,8.4-11.3,19-26.9c6.8-10-71.4-32.4-62.2-17.9c15.3,24.2,30.8,44.7,30.9,44.7H477
			C477,427.5,477.1,427.5,477.1,427.5z"/>
		<path class="st8" d="M472.8,527c-0.4,11-3.5,1-3.7,0.1c0.5-2.2-1.5-92.6-4.3-99.6c1.9-1.7,11.1-1.8,12.3,0
			C474.2,431,471.8,522.2,472.8,527z"/>
	</g>
	<g>
		<g class="st9">
			<rect x="1828.7" y="1327.1" class="st10" width="366.8" height="143.9"/>
			<polygon class="st11" points="2170,1280.9 2170,1280.6 1803.3,1280.6 1803.3,1327.1 2170,1327.1 			"/>
			<rect x="1828.7" y="1172" class="st10" width="366.8" height="108.6"/>
			<rect x="1828.7" y="1183" class="st12" width="366.8" height="7.6"/>
			<rect x="1828.7" y="1213.6" class="st11" width="366.8" height="29.7"/>
			<rect x="1828.7" y="1366.6" class="st12" width="366.8" height="15"/>
			<rect x="1828.7" y="1439.7" class="st11" width="366.8" height="7.1"/>
		</g>
		<g>
			<rect x="1738.7" y="1327.1" class="st10" width="366.8" height="143.9"/>
			<polygon class="st11" points="2080.1,1280.9 2080.1,1280.6 1713.4,1280.6 1713.4,1327.1 2080.1,1327.1 			"/>
			<rect x="1738.7" y="1172" class="st10" width="366.8" height="108.6"/>
			<rect x="1738.7" y="1183" class="st12" width="366.8" height="7.6"/>
			<rect x="1738.7" y="1213.6" class="st11" width="366.8" height="29.7"/>
			<rect x="1738.7" y="1366.6" class="st12" width="366.8" height="15"/>
			<rect x="1738.7" y="1439.7" class="st11" width="366.8" height="7.1"/>
		</g>
	</g>
	<g>
		<g id="laptop_2_">
			<polygon class="st13" points="1584.6,1471.1 1045.9,1471.1 1175.9,1124.8 1714.6,1124.8 			"/>
			<polygon class="st13" points="1078.3,1471.1 855.1,1471.1 855.1,1461.2 1078.3,1451.4 			"/>
		</g>
		<path class="st12" d="M1425.1,1307.4c-10.1,24-33.7,39.4-52.7,34.5c-19-4.9-26.1-28.4-16-52.4c10.1-24,33.7-39.4,52.7-34.5
			C1428.1,1259.9,1435.2,1283.4,1425.1,1307.4z"/>
	</g>
	<g>
		<g class="st9">
			<g>
				<g>
					<rect x="307.8" y="1095" class="st10" width="366.7" height="120.3"/>
					<polygon class="st11" points="333.2,1303.7 333.2,1304 699.9,1304 699.9,1215.3 333.2,1215.3 					"/>
					<rect x="307.8" y="1304" class="st10" width="366.7" height="133.5"/>
					<rect x="307.8" y="1402.7" class="st12" width="366.7" height="8.3"/>
					<rect x="307.8" y="1344.9" class="st11" width="366.7" height="32.6"/>
					<rect x="307.8" y="1155.5" class="st12" width="366.7" height="16.5"/>
					<rect x="307.8" y="1121.6" class="st11" width="366.7" height="7.7"/>
					<g>
						<rect x="307.8" y="1018.2" class="st10" width="366.7" height="43.7"/>
						<rect x="278" y="1061.9" class="st11" width="366.7" height="33.1"/>
					</g>
				</g>
				<rect x="278" y="1437.4" class="st12" width="366.7" height="33.2"/>
			</g>
			<g>
				<g>
					<rect x="317.8" y="670.8" class="st10" width="366.7" height="129.7"/>
					<polygon class="st11" points="343.2,851.3 343.2,851.6 709.9,851.6 709.9,800.5 343.2,800.5 					"/>
					<rect x="317.8" y="851.6" class="st10" width="366.7" height="133.5"/>
					<rect x="317.8" y="950.3" class="st12" width="366.7" height="8.3"/>
					<rect x="317.8" y="892.5" class="st11" width="366.7" height="32.6"/>
					<rect x="317.8" y="731.3" class="st12" width="366.7" height="16.5"/>
					<rect x="317.8" y="697.4" class="st11" width="366.7" height="7.7"/>
					<g>
						<rect x="317.8" y="594" class="st10" width="366.7" height="43.7"/>
						<rect x="288" y="637.7" class="st11" width="366.7" height="33.1"/>
					</g>
				</g>
				<rect x="288" y="985" class="st12" width="366.7" height="33.2"/>
			</g>
		</g>
		<g>
			<g>
				<g>
					<rect x="217.9" y="1095" class="st10" width="366.7" height="120.3"/>
					<polygon class="st11" points="243.3,1303.7 243.3,1304 610,1304 610,1215.3 243.3,1215.3 					"/>
					<rect x="217.9" y="1304" class="st10" width="366.7" height="133.5"/>
					<rect x="217.9" y="1402.7" class="st12" width="366.7" height="8.3"/>
					<rect x="217.9" y="1344.9" class="st11" width="366.7" height="32.6"/>
					<rect x="217.9" y="1155.5" class="st12" width="366.7" height="16.5"/>
					<rect x="217.9" y="1121.6" class="st11" width="366.7" height="7.7"/>
					<g>
						<rect x="217.9" y="1018.2" class="st10" width="366.7" height="43.7"/>
						<rect x="188" y="1061.9" class="st11" width="366.7" height="33.1"/>
					</g>
				</g>
				<rect x="188" y="1437.4" class="st12" width="366.7" height="33.2"/>
			</g>
			<g>
				<g>
					<rect x="227.9" y="670.8" class="st10" width="366.7" height="129.7"/>
					<polygon class="st11" points="253.3,851.3 253.3,851.6 620,851.6 620,800.5 253.3,800.5 					"/>
					<rect x="227.9" y="851.6" class="st10" width="366.7" height="133.5"/>
					<rect x="227.9" y="950.3" class="st12" width="366.7" height="8.3"/>
					<rect x="227.9" y="892.5" class="st11" width="366.7" height="32.6"/>
					<rect x="227.9" y="731.3" class="st12" width="366.7" height="16.5"/>
					<rect x="227.9" y="697.4" class="st11" width="366.7" height="7.7"/>
					<g>
						<rect x="227.9" y="594" class="st10" width="366.7" height="43.7"/>
						<rect x="198" y="637.7" class="st11" width="366.7" height="33.1"/>
					</g>
				</g>
				<rect x="198" y="985" class="st12" width="366.7" height="33.2"/>
			</g>
		</g>
	</g>
	<g>
		<path class="st14" d="M1956.4,1145.4c-26.3,0-47.7-21.4-47.7-47.7c0-27.8,24.5-27.8,37.6-27.8c1.6,0,3.3,0,5,0c3.5,0,7.1,0,10.6,0
			c1.7,0,3.4,0,5,0c8.6,0,17.6,0.3,24.6,3.9c8.3,4.3,12.5,12.3,12.5,23.8C2004.1,1124,1982.7,1145.4,1956.4,1145.4z M1946.3,1085.6
			c-20.2,0-22,3.2-22,12.1c0,17.7,14.4,32.1,32.1,32.1c17.7,0,32.1-14.4,32.1-32.1c0-9.7-2.5-12.1-21.5-12.1c-1.6,0-3.2,0-4.9,0
			c-3.5,0-7.3,0-10.8,0C1949.6,1085.6,1947.9,1085.6,1946.3,1085.6z"/>
		<path class="st14" d="M1957.7,1146.1c0,14.3-11.6,25.8-25.8,25.8h-70.6c-14.3,0-25.8-11.6-25.8-25.8v-97.3h122.3V1146.1z"/>
		<path class="st3" d="M1892.6,1124.9c0,10.7-8.7,19.4-19.4,19.4l0,0c-10.7,0-19.4-8.7-19.4-19.4v-74.3h38.8V1124.9z"/>
		<path class="st14" d="M1964.4,1050.4c0,3.6-3,6.6-6.6,6.6h-121.9c-3.6,0-6.6-3-6.6-6.6l0,0c0-3.6,3-6.6,6.6-6.6h121.9
			C1961.4,1043.8,1964.4,1046.7,1964.4,1050.4L1964.4,1050.4z"/>
	</g>
	<g>
		<rect x="130.6" y="1471.1" class="st14" width="2138.8" height="40.9"/>
	</g>
</g>
<path class="st15" d="M2243.3,1501.3c-684.6-0.9-1369.2-1.7-2053.8-2.6"/>
</svg>
