<?xml version="1.0" encoding="utf-8"?>
<!-- Generator: Adobe Illustrator 25.2.0, SVG Export Plug-In . SVG Version: 6.00 Build 0)  -->
<svg version="1.1" id="Layer_1" xmlns="http://www.w3.org/2000/svg" xmlns:xlink="http://www.w3.org/1999/xlink" x="0px" y="0px"
	 viewBox="0 0 1251 1389" style="enable-background:new 0 0 1251 1389;" xml:space="preserve">
<style type="text/css">
	.st0{opacity:0.1;fill:#283757;}
	.st1{fill:#6B48FF;}
	.st2{fill:#FFFFFF;}
	.st3{fill:#E0C605;}
	.st4{fill:#A7A1F1;}
	.st5{fill:#4E5EAF;}
	.st6{opacity:0.37;fill:#283757;}
	.st7{opacity:0.97;fill:#4E5EAF;}
	.st8{opacity:0.37;}
	.st9{opacity:0.97;fill:#283757;}
	.st10{opacity:0.97;fill:#A7A1F1;}
	.st11{opacity:0.97;fill:#E0C605;}
	.st12{fill:#2A3756;}
	.st13{fill:#283558;}
	.st14{fill:#E4837A;}
	.st15{fill:#E8E2E2;}
	.st16{fill:#807EC0;}
	.st17{fill:#CA706F;}
	.st18{fill:#E3847C;}
	.st19{fill:#192133;}
</style>
<path class="st0" d="M1114.9,1360c0,16.2-539,29.4-735.1,29.4S94.7,1376.2,94.7,1360c0-16.2,89-29.4,285.1-29.4
	S1114.9,1343.8,1114.9,1360z"/>
<path class="st1" d="M857.4,7C747.2,39.7,450.9,159.3,373.6,176.2C296.3,193.1-0.4,286.1,1.2,608.8
	c1.6,322.7-17.7,441.5,232.9,525.8c250.5,84.3,634.1-89.3,812-293.8c177.9-204.5,291.6-353.2,122.7-672.5
	C1061.1,8.3,927.7-13.8,857.4,7z"/>
<g>
	<g>
		<rect x="652.6" y="316.3" class="st2" width="436.6" height="640.1"/>
		<g>
			<g>
				<polygon class="st3" points="1001.3,394.5 909.3,394.5 909.3,372.9 1001.3,372.9 1013.6,383.7 				"/>
				<polygon class="st4" points="910.8,394.5 818.8,394.5 818.8,372.9 910.8,372.9 923.1,383.7 				"/>
				<polygon class="st5" points="820.2,394.5 728.3,394.5 728.3,372.9 820.2,372.9 832.6,383.7 				"/>
			</g>
			<g>
				<polygon class="st6" points="908.8,740 833.6,699.9 758.2,719.7 757,715.2 834.2,694.9 909.4,735.1 983.7,715.2 984.9,719.7 
									"/>
				<circle class="st4" cx="757.8" cy="717.7" r="12.5"/>
				<circle class="st3" cx="833.2" cy="697.6" r="12.5"/>
				<circle class="st5" cx="908.6" cy="737.8" r="12.5"/>
				<circle class="st4" cx="984.1" cy="717.7" r="12.5"/>
			</g>
			<g>
				<g>
					<path class="st7" d="M791.6,775.5h-46.7c-9.2,0-16.6,7.4-16.6,16.6v6.2h79.9v-6.2C808.2,782.9,800.7,775.5,791.6,775.5z"/>
					<g class="st8">
						<path class="st9" d="M791.8,819.6h-47.3c-1.7,0-3.1-1.4-3.1-3.1l0,0c0-1.7,1.4-3.1,3.1-3.1h47.3c1.7,0,3.1,1.4,3.1,3.1l0,0
							C795,818.2,793.6,819.6,791.8,819.6z"/>
						<path class="st9" d="M791.8,831.5h-47.3c-1.7,0-3.1-1.4-3.1-3.1l0,0c0-1.7,1.4-3.1,3.1-3.1h47.3c1.7,0,3.1,1.4,3.1,3.1l0,0
							C795,830.1,793.6,831.5,791.8,831.5z"/>
						<path class="st9" d="M791.8,843.4h-47.3c-1.7,0-3.1-1.4-3.1-3.1l0,0c0-1.7,1.4-3.1,3.1-3.1h47.3c1.7,0,3.1,1.4,3.1,3.1l0,0
							C795,842,793.6,843.4,791.8,843.4z"/>
						<path class="st9" d="M791.8,855.2h-47.3c-1.7,0-3.1-1.4-3.1-3.1v0c0-1.7,1.4-3.1,3.1-3.1h47.3c1.7,0,3.1,1.4,3.1,3.1v0
							C795,853.8,793.6,855.2,791.8,855.2z"/>
						<path class="st9" d="M791.8,879h-47.3c-1.7,0-3.1-1.4-3.1-3.1l0,0c0-1.7,1.4-3.1,3.1-3.1h47.3c1.7,0,3.1,1.4,3.1,3.1l0,0
							C795,877.6,793.6,879,791.8,879z"/>
						<path class="st9" d="M774.5,890.9h-30c-1.7,0-3.1-1.4-3.1-3.1l0,0c0-1.7,1.4-3.1,3.1-3.1h30c1.7,0,3.1,1.4,3.1,3.1l0,0
							C777.6,889.5,776.3,890.9,774.5,890.9z"/>
					</g>
				</g>
				<g>
					<path class="st10" d="M894.3,775.5h-46.7c-9.2,0-16.6,7.4-16.6,16.6v6.2h79.9v-6.2C910.9,782.9,903.5,775.5,894.3,775.5z"/>
					<g class="st8">
						<path class="st9" d="M894.6,819.6h-47.3c-1.7,0-3.1-1.4-3.1-3.1l0,0c0-1.7,1.4-3.1,3.1-3.1h47.3c1.7,0,3.1,1.4,3.1,3.1l0,0
							C897.7,818.2,896.3,819.6,894.6,819.6z"/>
						<path class="st9" d="M894.6,843.4h-47.3c-1.7,0-3.1-1.4-3.1-3.1l0,0c0-1.7,1.4-3.1,3.1-3.1h47.3c1.7,0,3.1,1.4,3.1,3.1l0,0
							C897.7,842,896.3,843.4,894.6,843.4z"/>
						<path class="st9" d="M894.6,855.2h-47.3c-1.7,0-3.1-1.4-3.1-3.1v0c0-1.7,1.4-3.1,3.1-3.1h47.3c1.7,0,3.1,1.4,3.1,3.1v0
							C897.7,853.8,896.3,855.2,894.6,855.2z"/>
						<path class="st9" d="M894.6,867.1h-47.3c-1.7,0-3.1-1.4-3.1-3.1l0,0c0-1.7,1.4-3.1,3.1-3.1h47.3c1.7,0,3.1,1.4,3.1,3.1l0,0
							C897.7,865.7,896.3,867.1,894.6,867.1z"/>
						<path class="st9" d="M894.6,879h-47.3c-1.7,0-3.1-1.4-3.1-3.1l0,0c0-1.7,1.4-3.1,3.1-3.1h47.3c1.7,0,3.1,1.4,3.1,3.1l0,0
							C897.7,877.6,896.3,879,894.6,879z"/>
						<path class="st9" d="M885.9,890.9h-38.6c-1.7,0-3.1-1.4-3.1-3.1l0,0c0-1.7,1.4-3.1,3.1-3.1h38.6c1.7,0,3.1,1.4,3.1,3.1l0,0
							C889,889.5,887.6,890.9,885.9,890.9z"/>
					</g>
				</g>
				<g>
					<path class="st11" d="M997,775.5h-46.7c-9.2,0-16.6,7.4-16.6,16.6v6.2h79.9v-6.2C1013.6,782.9,1006.2,775.5,997,775.5z"/>
					<g class="st8">
						<path class="st9" d="M975.7,819.6H950c-1.7,0-3.1-1.4-3.1-3.1l0,0c0-1.7,1.4-3.1,3.1-3.1h25.6c1.7,0,3.1,1.4,3.1,3.1l0,0
							C978.8,818.2,977.4,819.6,975.7,819.6z"/>
						<path class="st9" d="M997.3,831.5H950c-1.7,0-3.1-1.4-3.1-3.1l0,0c0-1.7,1.4-3.1,3.1-3.1h47.3c1.7,0,3.1,1.4,3.1,3.1l0,0
							C1000.4,830.1,999,831.5,997.3,831.5z"/>
						<path class="st9" d="M997.3,843.4H950c-1.7,0-3.1-1.4-3.1-3.1l0,0c0-1.7,1.4-3.1,3.1-3.1h47.3c1.7,0,3.1,1.4,3.1,3.1l0,0
							C1000.4,842,999,843.4,997.3,843.4z"/>
						<path class="st9" d="M997.3,855.2H950c-1.7,0-3.1-1.4-3.1-3.1v0c0-1.7,1.4-3.1,3.1-3.1h47.3c1.7,0,3.1,1.4,3.1,3.1v0
							C1000.4,853.8,999,855.2,997.3,855.2z"/>
						<path class="st9" d="M997.3,867.1H950c-1.7,0-3.1-1.4-3.1-3.1l0,0c0-1.7,1.4-3.1,3.1-3.1h47.3c1.7,0,3.1,1.4,3.1,3.1l0,0
							C1000.4,865.7,999,867.1,997.3,867.1z"/>
						<path class="st9" d="M997.3,890.9H950c-1.7,0-3.1-1.4-3.1-3.1l0,0c0-1.7,1.4-3.1,3.1-3.1h47.3c1.7,0,3.1,1.4,3.1,3.1l0,0
							C1000.4,889.5,999,890.9,997.3,890.9z"/>
					</g>
				</g>
			</g>
			<g>
				<g>
					<path class="st4" d="M916.9,607.3h89c4.3,0,7.7-3.4,7.7-7.7l0,0c0-4.3-3.4-7.7-7.7-7.7h-89c-4.3,0-7.7,3.4-7.7,7.7l0,0
						C909.2,603.9,912.6,607.3,916.9,607.3z"/>
					<path class="st4" d="M916.9,607.3h89c4.3,0,7.7-3.4,7.7-7.7l0,0c0-4.3-3.4-7.7-7.7-7.7h-89c-4.3,0-7.7,3.4-7.7,7.7l0,0
						C909.2,603.9,912.6,607.3,916.9,607.3z"/>
					<path class="st5" d="M956.1,631.2h49.8c4.3,0,7.7-3.4,7.7-7.7v0c0-4.3-3.4-7.7-7.7-7.7h-49.8c-4.3,0-7.7,3.4-7.7,7.7v0
						C948.4,627.7,951.9,631.2,956.1,631.2z"/>
					<path class="st3" d="M982.1,655h23.8c4.3,0,7.7-3.4,7.7-7.7l0,0c0-4.3-3.4-7.7-7.7-7.7h-23.8c-4.3,0-7.7,3.4-7.7,7.7l0,0
						C974.4,651.6,977.8,655,982.1,655z"/>
				</g>
				<g class="st8">
					<path class="st9" d="M878.5,599.5H745.2c-1.7,0-3.1-1.4-3.1-3.1l0,0c0-1.7,1.4-3.1,3.1-3.1h133.2c1.7,0,3.1,1.4,3.1,3.1l0,0
						C881.6,598.1,880.2,599.5,878.5,599.5z"/>
					<path class="st9" d="M878.5,611.3H731.4c-1.7,0-3.1-1.4-3.1-3.1l0,0c0-1.7,1.4-3.1,3.1-3.1h147.1c1.7,0,3.1,1.4,3.1,3.1l0,0
						C881.6,610,880.2,611.3,878.5,611.3z"/>
					<path class="st9" d="M878.5,635H745.2c-1.7,0-3.1-1.4-3.1-3.1l0,0c0-1.7,1.4-3.1,3.1-3.1h133.2c1.7,0,3.1,1.4,3.1,3.1l0,0
						C881.6,633.6,880.2,635,878.5,635z"/>
					<path class="st9" d="M878.5,646.9H731.4c-1.7,0-3.1-1.4-3.1-3.1l0,0c0-1.7,1.4-3.1,3.1-3.1h147.1c1.7,0,3.1,1.4,3.1,3.1l0,0
						C881.6,645.5,880.2,646.9,878.5,646.9z"/>
					<path class="st9" d="M788.4,658.8h-57c-1.7,0-3.1-1.4-3.1-3.1l0,0c0-1.7,1.4-3.1,3.1-3.1h57c1.7,0,3.1,1.4,3.1,3.1l0,0
						C791.5,657.4,790.1,658.8,788.4,658.8z"/>
				</g>
			</g>
			<g>
				<g>
					<path class="st4" d="M772.5,483.5c0-9.8,7.9-17.7,17.7-17.7v-44.2c-34.2,0-62,27.7-62,62c0,34.2,27.7,62,62,62v-44.2
						C780.4,501.3,772.5,493.3,772.5,483.5z"/>
					<path class="st3" d="M805.4,474.3l37.7-23.1c-10.9-17.8-30.5-29.6-52.9-29.6v44.2C796.6,465.8,802.2,469.2,805.4,474.3z"/>
					<path class="st5" d="M852.2,483.5c0-11.9-3.3-22.9-9.1-32.3l-37.7,23.1c1.7,2.7,2.6,5.9,2.6,9.3c0,9.8-7.9,17.7-17.7,17.7v44.2
						C824.4,545.5,852.2,517.7,852.2,483.5z"/>
				</g>
				<g class="st8">
					<path class="st9" d="M1010.5,439.7H907.8c-1.7,0-3.1-1.4-3.1-3.1l0,0c0-1.7,1.4-3.1,3.1-3.1h102.7c1.7,0,3.1,1.4,3.1,3.1l0,0
						C1013.6,438.3,1012.2,439.7,1010.5,439.7z"/>
					<path class="st9" d="M1010.5,451.5H893.9c-1.7,0-3.1-1.4-3.1-3.1l0,0c0-1.7,1.4-3.1,3.1-3.1h116.6c1.7,0,3.1,1.4,3.1,3.1l0,0
						C1013.6,450.1,1012.2,451.5,1010.5,451.5z"/>
					<path class="st9" d="M1010.5,463.4H893.9c-1.7,0-3.1-1.4-3.1-3.1l0,0c0-1.7,1.4-3.1,3.1-3.1h116.6c1.7,0,3.1,1.4,3.1,3.1l0,0
						C1013.6,462,1012.2,463.4,1010.5,463.4z"/>
					<path class="st9" d="M1010.5,475.3H893.9c-1.7,0-3.1-1.4-3.1-3.1l0,0c0-1.7,1.4-3.1,3.1-3.1h116.6c1.7,0,3.1,1.4,3.1,3.1l0,0
						C1013.6,473.9,1012.2,475.3,1010.5,475.3z"/>
					<path class="st9" d="M1001.8,487.2H893.9c-1.7,0-3.1-1.4-3.1-3.1v0c0-1.7,1.4-3.1,3.1-3.1h107.9c1.7,0,3.1,1.4,3.1,3.1v0
						C1005,485.8,1003.6,487.2,1001.8,487.2z"/>
					<path class="st9" d="M1010.5,511.3H907.8c-1.7,0-3.1-1.4-3.1-3.1l0,0c0-1.7,1.4-3.1,3.1-3.1h102.7c1.7,0,3.1,1.4,3.1,3.1l0,0
						C1013.6,509.9,1012.2,511.3,1010.5,511.3z"/>
					<path class="st9" d="M1010.5,523.2H893.9c-1.7,0-3.1-1.4-3.1-3.1l0,0c0-1.7,1.4-3.1,3.1-3.1h116.6c1.7,0,3.1,1.4,3.1,3.1l0,0
						C1013.6,521.8,1012.2,523.2,1010.5,523.2z"/>
					<path class="st9" d="M974.1,535h-80.2c-1.7,0-3.1-1.4-3.1-3.1l0,0c0-1.7,1.4-3.1,3.1-3.1h80.2c1.7,0,3.1,1.4,3.1,3.1l0,0
						C977.2,533.6,975.8,535,974.1,535z"/>
				</g>
			</g>
		</g>
	</g>
	<g>
		<g>
			<polygon class="st2" points="685.9,1346.7 736,960.8 748.5,962.7 698.6,1346.7 			"/>
			<polygon class="st2" points="1043.2,1346.7 993.4,962.7 1005.9,960.8 1056,1346.7 			"/>
			<rect x="864.6" y="961.7" class="st2" width="12.6" height="362.6"/>
		</g>
		<g>
			<g>
				<g>
					<rect x="790.5" y="305.8" class="st12" width="166" height="11"/>
				</g>
				<g>
					<polyline class="st12" points="700.5,968.8 700.5,955.8 1046.5,955.8 1046.5,968.8 					"/>
				</g>
			</g>
		</g>
	</g>
</g>
<g>
	<g id="_x30_5_48_">
		<g id="_x30_5_56_">
			<g>
				<path class="st13" d="M451.1,770.8c0,0-14,219.3-14.6,259.4c-0.3,20.3,2.1,149.5,3.5,220.2c-6.8,1.4-14.2,2.2-22,2.2
					c-6.9,0-13.5-0.6-19.6-1.8c-5.2-41.3-12-94.6-15.7-117.4c-12.8-79.7-0.2-102.7-2.6-125.8c-1.3-12.6-21.7-105-39.9-186.6
					c-6.6-29.5-12.9-57.6-18-80c-6.7-29.4-11.1-49-11.1-49C333.9,636.3,451.1,770.8,451.1,770.8z"/>
				<path class="st14" d="M439.9,1250.3c0.5,27.5,0.9,46.1,0.9,46.1l-13.5,28.5l-22.3-19.4c0,0-2.9-24.1-6.8-54.8
					c6.1,1.1,12.7,1.8,19.6,1.8C425.7,1252.6,433.1,1251.8,439.9,1250.3z"/>
				<g id="leg_327_">
					<path class="st2" d="M400.4,1298.9c-2.8,0.8-10.3,49.7-5.8,52.2c4.5,2.5,129.4,4.5,136.7-2.6c3.8-3.7-0.2-20.2-2.9-21
						c-48.2-13.5-86-40.7-86-40.7s-9.7,6.2-8.2,12.8l1.5,2.8c0,0-7.8,7.3-15.3,6.6C412.9,1308.4,407.5,1297,400.4,1298.9z"/>
					<path class="st15" d="M462.4,1299.4c-6.2,4.4-8.6,11.1-9.3,13.9l1.9,0.5c0.7-2.6,3-9,9-13.1c0.1-0.1,0.2-0.1,0.3-0.2
						L462.4,1299.4z"/>
					<path class="st15" d="M473.4,1305.4c-5.7,4.4-8,10.7-8.7,13.4l1.9,0.5c0.7-2.5,2.9-8.8,8.8-12.9L473.4,1305.4z"/>
				</g>
			</g>
			<g>
				<path class="st13" d="M256.3,988.8C251.6,867.7,237,774.2,237,774.2c14.5-36.2,57-37.1,85.2-33.3c15.3,2.1,31.4,5.6,31.4,5.6
					c-2.6,25.8-5.5,50.6-8.4,74.4c-8.2,65.8-22.1,124.6-27,176.4c-11.2,118.7-18.4,201.8-22.6,253.1c-6.6,1.3-13.8,2.1-21.3,2.1
					c-5.8,0-11.4-0.4-16.7-1.3l-0.3-6.4C238,1095.5,260.4,1095,256.3,988.8z"/>
				<path class="st14" d="M259.6,1300.2l-2.2-48.9c5.3,0.8,10.9,1.3,16.7,1.3c7.5,0,14.7-0.7,21.3-2.1c-3.6,43.9-5.1,64.6-5.1,64.6
					L259.6,1300.2z"/>
				<g id="leg_326_">
					<g>
						<path class="st2" d="M244,1339.4c-2.1,15.7,13.5,25,30.1,25c16.6,0,33.1-8.6,30.1-25c-1.7-9.6-4.6-21.9-7.4-34.2
							c-2.7-12.3-10.9-21.1-21.6-21.1c-10.2,0-18.3,8.4-21.7,19.6C248.9,1318.8,245.6,1327.4,244,1339.4z"/>
						<path class="st15" d="M287.7,1310l1.4-1.5c-4-3.7-9.3-5.8-14.1-5.8c-6.6,0-11.8,3.9-13.8,5.5l1.3,1.5c1.8-1.5,6.5-5,12.5-5
							C281.4,1304.7,286.3,1308.7,287.7,1310z"/>
						<path class="st15" d="M290,1321.7l1.4-1.5c-4.5-4.2-10.7-6.7-16.5-6.7c-7.9,0-13.9,4.4-16.1,6.3l1.3,1.5
							c2-1.7,7.5-5.8,14.8-5.8C280.2,1315.5,285.9,1317.8,290,1321.7z"/>
					</g>
				</g>
			</g>
			<g id="body_139_">
				<path id="body_140_" class="st4" d="M316.3,388.6c-24.9,1.5-70.7,22.4-78.3,48.4c-5.1,35.5,21.4,132.8,0,248.8
					c-27.4,109.2-16.8,146.4-16.8,146.4s34.8-4.1,72.2-32.7c29.7,18.5,98.1,55.6,168.3,48.3c0.7-25.7-27.3-304.1-23.5-400.3
					c-7.2-23.3-56.1-54.8-72.1-57.9C364.2,389.3,337.5,387.3,316.3,388.6z"/>
				<g id="hand_18_">
					<path class="st14" d="M241.9,790.3l27.9-11.8c0,0,20.5,16.6,23.7,21c-9.2,16-32.8,22.1-32.8,22.1L241.9,790.3z"/>
					<path class="st4" d="M270.5,769.7l-39.7,25.4c0,0-69-61.6-83.8-124.8c-14.8-63.1,32.7-187.4,108-256.1
						c49.8,13.7-1,225.1-1,225.1L270.5,769.7z"/>
					<g>
						<path class="st16" d="M235.1,792.5c26.7-2.7,53-24.4,54.1-25.3l1-0.9l-0.7-1.1c-0.7-1-67.2-103.6-70.9-115.6
							c-0.8-2.7,1.1-14.5,23.5-64c12.8-28.3,26.2-55.5,26.3-55.8l-2.7-1.3c-5.5,11.2-53.8,109.5-50,122
							c3.6,11.8,62.8,103.3,70.5,115.2c-5.1,4-28.5,21.5-51.4,23.8L235.1,792.5z"/>
						<path class="st16" d="M216.7,651.4l0.9-2.8c-16.8-5.6-27.3-3.1-27.8-3l0.7,2.9l-0.4-1.5l0.3,1.5
							C190.7,648.4,200.8,646.2,216.7,651.4z"/>
					</g>
				</g>
				<path id="hood_30_" class="st4" d="M363.3,462.8c-23.5-0.1-100.7-18.9-116.7-50.1c-16-31.2,5.4-54.5,39.4-65.5
					c33.9-10.9,100.7,0.1,114.7,31.2C414.6,409.6,395.7,463,363.3,462.8z"/>
				<g id="neck_122_">
					<g id="neck_123_">
						<polygon class="st14" points="315.8,387.2 353.7,426.5 365.7,393.6 361.6,337.9 319.9,330.2 						"/>
						<path class="st17" d="M318,356.6l1.6-22.6l42.1,3.9l2.8,38.3c-1.5,0.1-2.6,0-4.2,0C344.3,376.1,326.3,365.3,318,356.6z"/>
					</g>
				</g>
				<g id="head_160_">
					<g id="head_162_">
						<path id="hair_203_" class="st13" d="M289,273.4c0,29.8,24.4,57,54.4,57c30,0,54.4-27.2,54.4-57c0-29.8-24.4-53.9-54.4-53.9
							C313.3,219.5,289,243.6,289,273.4z"/>
						<g id="face_128_">
							<path class="st17" d="M390.7,289.5c0,0,5.4-3.5,9.6,2.1c4.2,5.6,1.4,26.6-9.1,26.6C380.8,318.2,390.7,289.5,390.7,289.5z"/>
							<path class="st14" d="M307.6,289.2c-2-2.4-6.8-4.1-12,2.4c-5.2,6.5-1.7,31,11.3,31C320,322.6,313,295.6,307.6,289.2z"/>
							<path class="st14" d="M312,283.7c3.9-25.6,25.8-38.9,49.3-38.9c23.4,0,35.1,15.4,35.1,38.9c0,0-0.2,30-0.2,31.5
								c0,17.6-15.2,50.7-32.2,50.7c-19.5,0-52.9-26-52.9-43C311.1,321.5,310.5,293.4,312,283.7z"/>
						</g>
						<g id="eyebrows_144_">
							<g>
								<path class="st13" d="M356.3,282.9c0,0-17.5-1.7-20.9-1.4c-5.6,0.5-6.8,4.2-7.7,6.2c-0.3,0.7,22.8,2.9,26.2,1.7
									C357.3,288.2,356.3,282.9,356.3,282.9z"/>
								<path class="st13" d="M373.7,282.9c0,0,17.5-1.7,20.9-1.4c0.6,0.1,1.2,0.2,1.8,0.3c1.9,0.4,1.9,6.6,0.4,6.8
									c-7,0.8-18.3,1.6-20.6,0.7C372.7,288.2,373.7,282.9,373.7,282.9z"/>
							</g>
						</g>
						<polygon id="nose_53_" class="st17" points="373.6,326.9 358.1,326.9 367.3,330.4 						"/>
						<g id="glasses_86_">
							<path class="st2" d="M370.7,307.8c-0.7-5.1,0.3-10.2,2.7-14.3c2.4-4.1,6-6.7,10-7.3c0.6-0.1,1.2-0.1,1.9-0.1
								c7.7,0,14.5,7.3,15.7,17.1c0.7,5.1-0.3,10.2-2.7,14.3c-2.4,4.1-6,6.7-10,7.3c-0.6,0.1-1.2,0.1-1.9,0.1
								C378.7,324.8,371.9,317.5,370.7,307.8z M383.6,287.7c-3.6,0.6-6.8,2.9-9,6.6c-2.2,3.8-3.1,8.4-2.4,13.2
								c1.1,9,7.3,15.7,14.3,15.7c0.6,0,1.1,0,1.7-0.1c3.6-0.6,6.8-2.9,9-6.6c2.2-3.8,3.1-8.4,2.4-13.2c-1.1-8.9-7.3-15.7-14.3-15.7
								C384.7,287.6,384.1,287.7,383.6,287.7z"/>
							<path class="st2" d="M342,324.7c-8.4-1.3-14-11-12.7-21.6c1.2-9.7,8-17.1,15.7-17.1c0.6,0,1.3,0,1.9,0.1
								c4.1,0.6,7.6,3.2,10,7.3c2.4,4.1,3.3,9.1,2.7,14.3c-1.2,9.7-8,17.1-15.7,17.1h0C343.3,324.8,342.7,324.8,342,324.7z
								 M330.8,303.3c-1.3,9.8,3.9,18.7,11.5,19.8c0.6,0.1,1.1,0.1,1.7,0.1l0,0c7,0,13.2-6.7,14.3-15.7c0.6-4.7-0.3-9.4-2.4-13.2
								c-2.2-3.7-5.4-6.1-9-6.6c-0.6-0.1-1.1-0.1-1.7-0.1C338.1,287.6,331.9,294.4,330.8,303.3z"/>
							<path class="st2" d="M370.8,306.9l1.1-1c-1.9-2.6-4.2-3.9-6.7-3.9c-2.4,0-4.7,1.4-6.7,3.9l1.1,1c1.6-2.2,3.6-3.4,5.6-3.4
								C367.3,303.5,369.2,304.7,370.8,306.9z"/>
						</g>
					</g>
					<g id="hair_202_">
						<g id="_x30_5_57_">
							<g id="head_161_">
								<g>
									<path class="st13" d="M302,195.7c-0.7,20.3,11.6,33.4,30,34c18.4,0.6,27.3-12.3,28-32.6c0.7-20.3-8.5-35.8-27-36.4
										C314.6,160,302.7,175.4,302,195.7z"/>
									<path class="st13" d="M327.2,228c-8.8-0.3-16.2-3.5-21.5-9.3c-5.3-5.9-7.9-14-7.6-23.5c0.3-9.5,3.2-18,8.2-24.1
										c5.3-6.4,12.5-9.8,20.8-9.8c0.3,0,0.7,0,1,0c8.5,0.3,15.5,3.9,20.1,10.5c4.3,6.2,6.4,14.7,6.1,24.6
										c-0.7,20.3-9.9,31.5-25.9,31.5C328,228,327.6,228,327.2,228z M307.3,171.8c-4.8,5.9-7.6,14.2-8,23.4
										c-0.3,9.2,2.2,17,7.3,22.7c5,5.6,12.1,8.6,20.6,8.9c8.4,0.3,15-2.5,19.4-8.2c4-5.2,6.2-12.6,6.5-22.2
										c0.3-9.6-1.7-17.9-5.9-23.9c-4.4-6.3-11-9.8-19.1-10c-0.3,0-0.7,0-1,0C319.1,162.5,312.3,165.7,307.3,171.8z"/>
								</g>
							</g>
						</g>
					</g>
				</g>
				<g id="hood_29_">
					<path class="st16" d="M359.7,467.6c8.6,0,18.7-8.5,29.8-25.3c8.2-12.2,14-24.7,14.1-24.8l-2.7-1.3c-0.1,0.1-5.8,12.4-13.9,24.4
						c-10.4,15.6-19.9,23.9-27.3,23.9c-24.8,0-102.1-43.9-102.9-44.3l-1.5,2.6C258.5,424.7,334.1,467.6,359.7,467.6z"/>
					<path class="st2" d="M375.2,593.2c4.1-11.8,5.4-42.2,3.8-90.3c-1.2-35.7-3.6-68.5-3.7-68.8l-3,0.2c0.1,1.3,9.6,130.5,0.1,157.9
						L375.2,593.2z"/>
					<path class="st2" d="M331.1,616.9l3-0.5c-5.4-29.8,1.8-180.6,1.9-182.1l-3-0.1C332.6,440.3,325.7,586.8,331.1,616.9z"/>
				</g>
			</g>
		</g>
	</g>
	<g>
		<g>
			<g>
				<g>
					<path class="st4" d="M435.7,441.9c31,34.2,77.5,154.5,77.5,154.5l106.1-26.8l20.8,46.8c0,0-111.4,74.4-146.2,66.1
						c-34.8-8.3-60.7-76.4-60.7-76.4S395.7,453.5,435.7,441.9z"/>
				</g>
			</g>
		</g>
		<g>
			<path class="st18" d="M622.7,577.4c0,0,12.6-8.6,23.3-18c8.8-7.7,17.2-13,18.7-13.5c3.2-1.3,40.7-10.2,40.7-10.2
				s1.9,8.3-8.3,13.3c-4.1,2-14.1,9.8-14.1,9.8s-22.3,25.9-31,32.7c-3,2.4-16,15.7-16,15.7L622.7,577.4z"/>
			<polygon class="st19" points="581.5,656.4 593.5,669.1 871.3,384 868.2,380.9 			"/>
			<path class="st18" d="M705.3,554.1c15.9,2.5,6.4,11.4,2.5,11.4c-1.3,0-9.5,1.9-9.5,1.9s3.2,3.2,2.5,5.7s-2.4,4.1-3.8,4.4
				c-1.2,0.3-5.1,0-5.1,0s1.2,3.4,0,6.4c-2.5,6.4-11.4,14.2-14,14.6c-3.8,0.6-19.3,3.6-19.3,3.6l6.6-9.3l-17.8-8.3l23.5-20.3
				l23.5,0.6c0,0-10.8-0.6-10.2-6.4C685,552.9,700,553.3,705.3,554.1z"/>
		</g>
		
			<rect x="438.7" y="547.3" transform="matrix(0.9943 -0.1065 0.1065 0.9943 -60.8117 50.2617)" class="st16" width="3" height="94.5"/>
	</g>
</g>
</svg>
