<?xml version="1.0" encoding="utf-8"?>
<!-- Generator: Adobe Illustrator 25.2.0, SVG Export Plug-In . SVG Version: 6.00 Build 0)  -->
<svg version="1.1" id="Layer_1" xmlns="http://www.w3.org/2000/svg" xmlns:xlink="http://www.w3.org/1999/xlink" x="0px" y="0px"
	 viewBox="0 0 1573.8 1581.8" style="enable-background:new 0 0 1573.8 1581.8;" xml:space="preserve">
<style type="text/css">
	.st0{fill:#6B48FF;}
	.st1{opacity:0.1;fill:#2A3756;}
	.st2{fill:#EBECED;}
	.st3{fill:#FFFFFF;}
	.st4{fill:#2A3756;}
	.st5{fill:#527BEF;}
	.st6{fill:#EF5C00;}
	.st7{fill:#EDD600;}
	.st8{fill:#4E5EAF;}
	.st9{opacity:0.3;fill:#4E5EAF;}
	.st10{fill:#C9B109;}
	.st11{fill:#E2857E;}
</style>
<path class="st0" d="M106.6,630.4c80.5-89.5,143.2-67.6,247.6-171.5C515.7,298.2,449.6,162.3,566,67.2c151.5-123.8,468-60.6,663,60
	c370.2,229.1,347.7,694,343.9,752.6c-5.8,88.8-26.5,405.1-280.6,581.1C901.4,1731.6,182.8,1514.6,35,1137.3
	C-20.4,995.6-19.3,770.4,106.6,630.4z"/>
<ellipse class="st1" cx="854.6" cy="1524.1" rx="586" ry="31.8"/>
<g>
	<path class="st2" d="M1122.4,728c-14.5,10.8-82,53.2-91.1,41.1c-9.1-12.1,50.7-64.9,65.2-75.7c14.5-10.8,32-11.8,39.2-2.3
		C1142.9,700.7,1136.9,717.2,1122.4,728z"/>
	<ellipse class="st3" cx="1214.8" cy="671.4" rx="124.3" ry="120.3"/>
	<g>
		<path class="st3" d="M1263.5,662.6c-0.7-0.1-1.3-0.2-2-0.5c-12-4.8-21.3-14-26.4-25.8c-5.1-11.9-5.2-25-0.4-36.9l18.7-46.5
			c4.8-12,14-21.3,25.8-26.4c11.9-5.1,25-5.2,36.9-0.4c4,1.6,5.9,6.1,4.3,10.1c-1.6,4-6.1,5.9-10.1,4.3c-8.1-3.3-17-3.2-25.1,0.3
			c-8.1,3.4-14.3,9.8-17.5,17.9l-18.7,46.5c-3.3,8.1-3.2,17,0.3,25.1c3.4,8,9.8,14.3,17.9,17.5c4,1.6,5.9,6.1,4.3,10.1
			C1270.3,661.1,1266.9,663,1263.5,662.6z"/>
		<g>
			<path class="st4" d="M1290.7,654.2c-3.6,29.9-44.2,49.5-90.7,44c-46.5-5.6-81.3-34.3-77.7-64.2c3.6-29.9,44.2-49.5,90.7-43.9
				C1259.5,595.6,1294.2,624.4,1290.7,654.2z"/>
			<g>
				<path class="st5" d="M1150.8,636.5c-0.3,2.4-2.4,4.1-4.8,3.8c-2.4-0.3-4.1-2.4-3.8-4.8c0.3-2.4,2.4-4.1,4.8-3.8
					C1149.4,632,1151.1,634.2,1150.8,636.5z"/>
				<path class="st5" d="M1178.3,641.1c-0.3,2.4-2.4,4.1-4.8,3.8c-2.4-0.3-4.1-2.4-3.8-4.8c0.3-2.4,2.4-4.1,4.8-3.8
					C1176.9,636.6,1178.6,638.7,1178.3,641.1z"/>
				<path class="st5" d="M1171.5,630.5c-0.3,2.4-2.4,4.1-4.8,3.8c-2.4-0.3-4.1-2.4-3.8-4.8c0.3-2.4,2.4-4.1,4.8-3.8
					C1170.1,626,1171.8,628.1,1171.5,630.5z"/>
				<path class="st5" d="M1160.7,628.6c-0.3,2.4-2.4,4.1-4.8,3.8c-2.4-0.3-4.1-2.4-3.8-4.8c0.3-2.4,2.4-4.1,4.8-3.8
					C1159.3,624.1,1161,626.3,1160.7,628.6z"/>
			</g>
			<g>
				<path class="st5" d="M1234.5,646.6c-0.3,2.4-2.4,4.1-4.8,3.8c-2.4-0.3-4.1-2.4-3.8-4.8c0.3-2.4,2.4-4.1,4.8-3.8
					C1233.1,642.1,1234.8,644.2,1234.5,646.6z"/>
				<path class="st5" d="M1262,651.1c-0.3,2.4-2.4,4.1-4.8,3.8c-2.4-0.3-4.1-2.4-3.8-4.8c0.3-2.4,2.4-4.1,4.8-3.8
					C1260.6,646.6,1262.3,648.8,1262,651.1z"/>
				<path class="st5" d="M1255.2,640.5c-0.3,2.4-2.4,4.1-4.8,3.8c-2.4-0.3-4.1-2.4-3.8-4.8c0.3-2.4,2.4-4.1,4.8-3.8
					C1253.8,636,1255.5,638.2,1255.2,640.5z"/>
				<path class="st5" d="M1244.4,638.7c-0.3,2.4-2.4,4.1-4.8,3.8c-2.4-0.3-4.1-2.4-3.8-4.8c0.3-2.4,2.4-4.1,4.8-3.8
					C1243,634.2,1244.7,636.3,1244.4,638.7z"/>
			</g>
		</g>
	</g>
	<path class="st2" d="M1338.7,726.9c5.5,17.2,23.7,94.8,9.3,99.4c-14.4,4.6-44.9-69-50.5-86.2c-5.5-17.2-0.8-34.1,10.5-37.8
		C1319.4,698.7,1333.1,709.7,1338.7,726.9z"/>
</g>
<g>
	<g>
		<polygon class="st3" points="474.9,371.5 472.1,367.5 595.3,272.3 598.1,276.4 		"/>
		<polygon class="st3" points="835,364.3 834.4,285.3 739.2,183.4 680.4,215.8 678,211.5 740.2,177.2 839.3,283.3 840,364.3 		"/>
		
			<rect x="840.2" y="225.4" transform="matrix(0.7684 -0.6399 0.6399 0.7684 53.8756 604.7173)" class="st3" width="44.6" height="4.9"/>
		<polygon class="st3" points="1109.8,376.5 1011.2,320.7 879.1,293.3 880.1,288.5 1013,316 1112.3,372.2 		"/>
		<polygon class="st3" points="1173.4,563.2 1039,469.7 1105.4,432.3 1107.8,436.7 1048.3,470.2 1176.2,559.1 		"/>
		
			<rect x="893.8" y="385.7" transform="matrix(0.8294 -0.5586 0.5586 0.8294 -55.9548 593.178)" class="st3" width="99.1" height="4.9"/>
		<polygon class="st3" points="1024.2,273 1019.5,271.6 1041.2,203.1 973.8,189 974.8,184.1 1047.5,199.4 		"/>
	</g>
	<g>
		<path class="st3" d="M789.5,180.3c0,27.5-22.3,49.8-49.8,49.8c-27.5,0-49.8-22.3-49.8-49.8c0-27.5,22.3-49.8,49.8-49.8
			C767.2,130.5,789.5,152.8,789.5,180.3z"/>
	</g>
	<g>
		<path class="st3" d="M897.1,279.1c0,33.3-27,60.3-60.3,60.3c-33.3,0-60.3-27-60.3-60.3c0-33.3,27-60.3,60.3-60.3
			C870.1,218.8,897.1,245.8,897.1,279.1z"/>
		<g id="_x33_">
			<g>
				<rect x="795.6" y="283.9" class="st6" width="16" height="26"/>
				<rect x="811.6" y="266.9" class="st7" width="17" height="43"/>
				<rect x="828.6" y="257.9" class="st8" width="17" height="52"/>
				<rect x="845.6" y="283.9" class="st6" width="16" height="26"/>
				<rect x="861.6" y="241.9" class="st8" width="15" height="68"/>
			</g>
		</g>
	</g>
	<g>
		<path class="st3" d="M1077.8,472c0,25.8-20.9,46.7-46.7,46.7c-25.8,0-46.7-20.9-46.7-46.7c0-25.8,20.9-46.7,46.7-46.7
			C1056.9,425.3,1077.8,446.2,1077.8,472z"/>
	</g>
	<g>
		<path class="st3" d="M675.8,241.7c0,21.8-17.7,39.5-39.5,39.5c-21.8,0-39.5-17.7-39.5-39.5c0-21.8,17.7-39.5,39.5-39.5
			C658.1,202.1,675.8,219.8,675.8,241.7z"/>
		<path class="st3" d="M636.2,295.4c-29.7,0-53.8-24.1-53.8-53.8c0-29.7,24.1-53.8,53.8-53.8c29.7,0,53.8,24.1,53.8,53.8
			C690,271.3,665.9,295.4,636.2,295.4z M636.2,192.8c-26.9,0-48.8,21.9-48.8,48.8c0,26.9,21.9,48.8,48.8,48.8
			c26.9,0,48.8-21.9,48.8-48.8C685.1,214.7,663.2,192.8,636.2,192.8z"/>
		<g id="_x32__1_">
			<g>
				<path class="st6" d="M636.3,241.7L645,218c-2.7-1-5.7-1.6-8.7-1.6c-14,0-25.3,11.3-25.3,25.3c0,14,11.3,25.3,25.3,25.3
					c14,0,25.3-11.3,25.3-25.3c0-1.4-0.1-2.9-0.4-4.2L636.3,241.7z"/>
				<path class="st8" d="M666.4,233.2c-1.5-9-7.8-16.4-16.2-19.5l-8.7,23.7L666.4,233.2z"/>
			</g>
		</g>
	</g>
	<g>
		<path class="st3" d="M1206.2,408.1c0,26.3-21.3,47.6-47.6,47.6c-26.3,0-47.6-21.3-47.6-47.6c0-26.3,21.3-47.6,47.6-47.6
			C1184.9,360.6,1206.2,381.8,1206.2,408.1z"/>
		<path class="st3" d="M1158.6,468.9c-33.5,0-60.8-27.3-60.8-60.8c0-33.5,27.3-60.8,60.8-60.8c33.5,0,60.8,27.3,60.8,60.8
			C1219.4,441.6,1192.1,468.9,1158.6,468.9z M1158.6,352.3c-30.8,0-55.9,25.1-55.9,55.9c0,30.8,25.1,55.9,55.9,55.9
			c30.8,0,55.9-25.1,55.9-55.9C1214.5,377.3,1189.4,352.3,1158.6,352.3z"/>
		<g>
			<path class="st9" d="M1154.9,386.7c8.2,5.5,10.5,16.6,5,24.8l0,0c-5.5,8.2-16.6,10.5-24.8,5l0,0c-8.2-5.5-10.5-16.6-5-24.8l0,0
				C1135.5,383.5,1146.6,381.3,1154.9,386.7L1154.9,386.7z"/>
			<path class="st4" d="M1161.5,412.3c-6,9.1-18.3,11.5-27.3,5.5c-9.1-6-11.5-18.3-5.5-27.3c6-9.1,18.3-11.5,27.3-5.5
				C1165,391,1167.5,403.3,1161.5,412.3z M1131.7,392.6c-4.9,7.4-2.9,17.3,4.5,22.2c7.4,4.9,17.3,2.9,22.2-4.5
				c4.9-7.4,2.9-17.3-4.5-22.2C1146.5,383.2,1136.5,385.2,1131.7,392.6z"/>
			<path class="st4" d="M1163.1,407.3l26.8,17.8c2.3,1.6,2.9,4.7,1.4,7l-0.1,0.1c-1.6,2.3-4.7,3-7,1.5l-26.8-17.8L1163.1,407.3z"/>
		</g>
	</g>
	<g>
		<path class="st3" d="M889.4,429.1c0,28.7-23.3,51.9-51.9,51.9c-28.7,0-51.9-23.3-51.9-51.9c0-28.7,23.3-51.9,51.9-51.9
			C866.2,377.1,889.4,400.4,889.4,429.1z"/>
		<path class="st3" d="M837.5,496.3c-37.1,0-67.2-30.2-67.2-67.2c0-37.1,30.2-67.2,67.2-67.2c37.1,0,67.2,30.2,67.2,67.2
			C904.7,466.1,874.6,496.3,837.5,496.3z M837.5,366.8c-34.3,0-62.3,27.9-62.3,62.3c0,34.3,27.9,62.3,62.3,62.3
			c34.3,0,62.3-27.9,62.3-62.3C899.8,394.7,871.8,366.8,837.5,366.8z"/>
		<g>
			<g>
				<g>
					<path class="st3" d="M872.9,404.9c-1.5,3.2-2.4,7.4-2.5,11l-1.9,0c0-3.4,0.8-7.2,2.1-10.5l-3.3,0l0-1.9l6.1,0L872.9,404.9z"/>
				</g>
			</g>
		</g>
	</g>
	<g>
		<path class="st3" d="M1069.5,320.2c0,33.1-26.8,59.9-59.9,59.9c-33.1,0-59.9-26.8-59.9-59.9c0-33.1,26.8-59.9,59.9-59.9
			C1042.7,260.3,1069.5,287.1,1069.5,320.2z"/>
		<g>
			<path class="st8" d="M968.6,332.2c0,7.2,5.5,13.7,12.7,13.7h25.4l36.5,13.8l-12.2-13.8h6.4c7.2,0,12.3-6.5,12.3-13.7v-28.9
				c0-7.2-5.1-12.4-12.3-12.4h-56.1c-7.2,0-12.7,5.3-12.7,12.4V332.2z"/>
			<g>
				<path class="st3" d="M995.5,320.4c1.7-0.1,3.4,1.5,3.4,3.4c0,1.9-1.5,3.3-3.4,3.3c-1.8,0-3.4-2-3.4-3.3
					C992.1,321.9,993.6,320.4,995.5,320.4z"/>
				<path class="st3" d="M1008.3,320.4c1.7-0.1,3.4,1.5,3.4,3.4c0,1.9-1.5,3.3-3.4,3.3c-1.8,0-3.4-2-3.4-3.3
					C1005,321.9,1006.5,320.4,1008.3,320.4z"/>
				<path class="st3" d="M1021.2,320.4c1.7-0.1,3.4,1.5,3.4,3.4c0,1.9-1.5,3.3-3.4,3.3c-1.8,0-3.4-2-3.4-3.3
					C1017.8,321.9,1019.3,320.4,1021.2,320.4z"/>
			</g>
		</g>
	</g>
	<g>
		<path class="st3" d="M963.1,176.5c0,23.7-19.2,42.9-42.9,42.9c-23.7,0-42.9-19.2-42.9-42.9s19.2-42.9,42.9-42.9
			C943.9,133.6,963.1,152.8,963.1,176.5z"/>
		<path class="st3" d="M920.2,234c-31.7,0-57.5-25.8-57.5-57.5c0-31.7,25.8-57.5,57.5-57.5c31.7,0,57.5,25.8,57.5,57.5
			C977.7,208.2,951.9,234,920.2,234z M920.2,124c-29,0-52.5,23.6-52.5,52.5c0,29,23.6,52.5,52.5,52.5c29,0,52.5-23.6,52.5-52.5
			C972.7,147.5,949.2,124,920.2,124z"/>
		<g>
			<g id="Lamp_2_">
				<path class="st7" d="M931.4,193.7h-22.2c0,0-4.5-18.5-4.5-22.2c0-8.7,7-15.7,15.7-15.7s15.7,7,15.7,15.7
					C936.1,174.8,931.4,193.7,931.4,193.7z"/>
				<path class="st10" d="M922.9,168.7c0.1,1.6-0.6,3.8-1.7,5.6c0.6,0.8,1.3,1.5,2.1,1.8c0.5-3.4,1.4-6.2,2.9-7.4
					c0.9-0.7,1.9-0.8,3-0.4c1.2,0.5,1.7,1.9,1.2,3.8c-0.6,2.3-2.7,5.4-5.6,5.9c-0.5,4.8-0.5,11.1,0.6,17l-1.7,0.3
					c-0.8-4.4-1.2-11.5-0.6-17.4c-1-0.3-2-1-2.9-2.1c-0.8,1-1.8,1.8-2.7,2.1c0.6,7.1-0.1,15.8-0.2,17.3l-1.8-0.1
					c0-0.1,0.4-5.5,0.4-11.3c0-2.3-0.1-4.2-0.2-5.9c-1.2-0.3-2.4-1.3-3.5-2.6c-1.3-1.6-2.4-4-1.7-5.8c0.2-0.5,0.8-1.4,2.3-1.5
					c0.8-0.1,1.5,0.2,2.1,0.8c1.2,1.2,1.9,4,2.3,7.3c0.6-0.3,1.3-1,1.9-1.8c-1-1.7-1.6-3.7-1.5-5.3c0.1-1.8,1-2.9,2.6-2.9
					C921.8,166.2,922.8,167.1,922.9,168.7z M921.2,168.9c-0.1-0.9-0.5-1-0.9-1c-0.2,0-0.8,0-0.9,1.3c0,1,0.3,2.2,0.8,3.4
					C920.9,171.3,921.3,169.9,921.2,168.9z M913.8,170.1c-0.3-0.3-0.5-0.3-0.7-0.3c-0.7,0-0.8,0.3-0.9,0.4c-0.3,0.7,0.2,2.3,1.5,4
					c0.6,0.8,1.3,1.4,1.9,1.7C915.1,172.1,914.3,170.7,913.8,170.1z M928.8,171.7c0.2-0.9,0.1-1.6-0.2-1.8c-0.5-0.2-0.9-0.2-1.3,0.1
					c-0.9,0.7-1.7,3-2.2,6C927,175.6,928.4,173.4,928.8,171.7z"/>
				<path class="st4" d="M909.2,193.6l1,8.1c0,3.2,2.6,5.9,5.7,5.9h0.3v1.2c0,1.6,1.4,2.6,3,2.6h2.6c1.6,0,3.1-1,3.1-2.6v-1.5
					c2.5-0.1,5.7-2.4,5.7-5.6l0.8-8.2H909.2z"/>
			</g>
			<path class="st7" d="M921.5,148.1c0,0.7-0.6,1.3-1.3,1.3H920c-0.7,0-1.3-0.6-1.3-1.3v-8c0-0.7,0.6-1.3,1.3-1.3h0.2
				c0.7,0,1.3,0.6,1.3,1.3V148.1z"/>
			<path class="st7" d="M929.4,153c-0.5,0.5-1.3,0.5-1.8-0.1l0,0c-0.5-0.5-0.5-1.3,0.1-1.8l5.9-5.5c0.5-0.5,1.3-0.5,1.8,0.1l0,0
				c0.5,0.5,0.5,1.3-0.1,1.8L929.4,153z"/>
			<path class="st7" d="M906.5,145.7c-0.5-0.5-1.3-0.5-1.8,0.1l0,0c-0.5,0.5-0.5,1.3,0.1,1.8l5.9,5.5c0.5,0.5,1.3,0.5,1.8-0.1l0,0
				c0.5-0.5,0.4-1.3-0.1-1.8L906.5,145.7z"/>
		</g>
	</g>
	<g>
		<g>
			<path class="st3" d="M1073.3,197.5c0,16.4-12.9,29.7-28.8,29.7c-15.9,0-28.8-13.3-28.8-29.7c0-16.4,12.9-29.7,28.8-29.7
				C1060.4,167.8,1073.3,181.1,1073.3,197.5z"/>
		</g>
	</g>
	<g>
		<g>
			<g>
				<path class="st8" d="M849.1,436.9v-26.6c0-6.4-5.2-11.6-11.6-11.6c-6.4,0-11.6,5.2-11.6,11.6v26.6h-4.4v-26.6
					c0-8.8,7.2-16,16-16c8.8,0,16,7.2,16,16v26.6H849.1z"/>
				<g>
					<path class="st8" d="M815.9,422.9v33.4h43.2v-33.4H815.9z M832.1,446.3l2.7-7.1c-1.2-0.8-1.9-2.2-1.9-3.8
						c0-2.6,2.1-4.6,4.6-4.6c2.6,0,4.6,2.1,4.6,4.6c0,1.5-0.8,2.9-1.9,3.8l2.7,7.1H832.1z"/>
				</g>
			</g>
		</g>
	</g>
	<g>
		<g>
			<path class="st7" d="M774.6,180.7c0,11.2-9.1,20.3-20.3,20.3c-11.2,0-20.3-9.1-20.3-20.3c0-11.2,9.1-20.3,20.3-20.3
				C765.6,160.5,774.6,169.6,774.6,180.7z"/>
			<path class="st8" d="M755.5,190.1c0-5.4-4-9.8-8.9-9.8c-1.6,0-3.1,0.5-4.4,1.2c-1.6-7.1-7.6-12.4-14.7-12.4
				c-8.1,0-14.7,6.9-15.1,15.5c-3.9,0.8-7,4.2-7.7,8.7H755C755.3,192.4,755.5,191.3,755.5,190.1z"/>
		</g>
	</g>
	<g>
		<g>
			<path class="st6" d="M1031.4,504.9c-17.4,0-31.6-14.2-31.6-31.6c0-17.4,14.2-31.6,31.6-31.6c17.4,0,31.6,14.2,31.6,31.6
				C1063,490.7,1048.8,504.9,1031.4,504.9z M1031.4,446.9c-14.6,0-26.4,11.8-26.4,26.4c0,14.6,11.8,26.4,26.4,26.4
				c14.6,0,26.4-11.8,26.4-26.4C1057.8,458.7,1045.9,446.9,1031.4,446.9z"/>
			<polygon class="st8" points="1042.7,482.3 1029.5,474.3 1029.5,451.3 1033.2,451.3 1033.2,472.2 1044.6,479.1 			"/>
		</g>
	</g>
	<g>
		<g>
			<rect x="1027.6" y="187.9" class="st6" width="26" height="18"/>
			<path class="st4" d="M1064.6,193.9h-1v-4.4c0-2.1-1.4-3.6-3.5-3.6h-31.4c-2.1,0-4.2,1.5-4.2,3.6v15.4c0,2.1,2.1,4,4.2,4h31.4
				c2.1,0,3.5-1.9,3.5-4v-4h1c1.1,0,2-0.6,2-1.8v-3.4C1066.6,194.6,1065.7,193.9,1064.6,193.9z M1061.6,204.8c0,0.5-0.7,1.1-1.2,1.1
				h-31.6c-0.5,0-1.2-0.6-1.2-1.1v-15.2c0-0.5,0.7-0.7,1.2-0.7h31.6c0.5,0,1.2,0.2,1.2,0.7V204.8z"/>
		</g>
	</g>
</g>
<g id="_x30_3_3_x2F_4_1_">
	<g id="_x30_3_Standing_2_">
		<g id="head_25_">
			<path class="st11" d="M473.7,366.7c25.2-6.4,61.6,11.5,67.3,41c5.7,29.5,11.1,81-7.6,87.6c-8.3,2.9-40,0-40,0l6.7,35.2H442
				l9.5-50.5C451.5,480.1,390.5,387.7,473.7,366.7z"/>
			<path class="st3" d="M498.1,403.9c-7,20.4,0.1,50.3-13.7,24.4c-6.8-12.7-17-9.3-22.4,0.9c-6.6,12.6,8.3,23.4,6.9,27.6
				c-1.4,4.2-14.1,22.7-17.4,23.2c-3.3,0.5-35.8-52.5-21.5-88c15.6-38.8,81.6-41.3,96.3-9.9C520.6,382.1,505,383.7,498.1,403.9z"/>
		</g>
		<g id="leg_4_">
			<path class="st3" d="M444,847.3c0,0,59.9,307.8,62.4,331.7c2.5,23.9-5,141.1,22.6,249.8l52.8,1.7c2-71.9,5.4-206.5,5.9-235.7
				c0.7-41.5,2-276.7,2-276.7S467.7,789.7,444,847.3z"/>
			<polygon class="st3" points="662.3,1514.5 527,1518.7 527,1462.6 580,1462.6 663.5,1499.2 			"/>
			<polygon class="st11" points="534.8,1462.6 574.2,1462.6 574.2,1430.5 533.8,1429 			"/>
		</g>
	</g>
	<g id="_x30_3_Front_1_">
		<g id="leg_3_">
			<polygon class="st11" points="423.5,1483.6 385.5,1473.2 386.4,1424.6 426.6,1424.6 			"/>
			<path class="st3" d="M356.8,915.6c0,0,13.5,144.1,18.5,277.2c-8.7,111.2-0.6,220,0.9,235l56.3,0.1c0.5-29.1,6.7-134.5,19.1-229.4
				c18.1-139.3,44.5-292.6,44.5-292.6S379.9,857.8,356.8,915.6z"/>
			<polygon class="st3" points="432.4,1522.1 366.5,1522.1 366.5,1506.5 384.5,1462.6 424.6,1462.6 432.4,1506.5 			"/>
		</g>
		<g id="hand_2_">
			<polygon class="st11" points="622.6,956.8 631.3,988.1 652.6,985 653,955.7 			"/>
			<path class="st8" d="M545.6,528.7c0,0,88.9,29.1,106.3,241.8c11.5,141,10.6,196,10.6,196l-40.4,0.6c0,0-78.9-197.2-86.1-284.7
				C532.7,641,545.6,528.7,545.6,528.7z"/>
			<path class="st11" d="M666.1,1011.9c-1.1-21.7-12.9-38.7-26.4-38.1c-3.9,0.2-7.6,1.9-10.7,4.7c-3.1,2.8-0.4,20,1.4,27.3
				c0.9,3.8,1.5,8,1.5,12.4c0,9.5-2.4,17.9-6.1,23.5c4.8,6.9,11.1,11,17.9,10.7C657.1,1051.7,667.2,1033.6,666.1,1011.9z"/>
		</g>
		<path class="st8" d="M445.5,511.9c-25.9,2.5-72.1,27.7-79.4,35c-12.8,87.8-15.1,424.6-15.1,424.6l246.5,1.8
			c0,0,6.1-298.8-30.2-427.7c-11.8-19.7-57-29.2-70.6-33.1C495.6,512.3,446.2,511.9,445.5,511.9z"/>
	</g>
	<path class="st8" d="M377,539.3c-63.1,37.1-101.6,167.7-89.8,237.2c11.4,66.8,120.5,110.8,120.5,110.8S407.7,588.9,377,539.3z"/>
</g>
</svg>
