<svg xmlns="http://www.w3.org/2000/svg" viewBox="0 0 161.22 47.18"><defs><style>.a,.b{fill:#ecb210;stroke:#e6332a;}.a,.b,.e{stroke-miterlimit:10;}.a{stroke-width:0.25px;}.b{stroke-width:0.15px;}.c{fill:#e6332a;}.d{fill:#f0c96a;}.e{fill:#432918;stroke:#1d1d1b;stroke-width:0.5px;}.f{fill:#fff;}.g,.i{fill:#1d1d1b;}.h{fill:#ede410;}.i{font-size:12px;}.i,.j{font-family:Arial-Black, Arial Black;font-weight:800;}.j{font-size:21.14px;fill:#e30613;}.k{letter-spacing:-0.02em;}</style></defs><title>começar a investir com pouco dinheiro</title><circle class="a" cx="41.65" cy="31.89" r="6.32"/><circle class="b" cx="41.65" cy="31.47" r="5.9"/><path class="c" d="M42.84,29.46a5.12,5.12,0,0,0-2.6-.25,1.11,1.11,0,0,0-.86.6,1,1,0,0,0,.08.91,1.59,1.59,0,0,0,.77.66,3.53,3.53,0,0,0,1.29.14,2.1,2.1,0,0,1,1.18.24c.24.15.51.46.37.77s-.77.52-1.14.58A3.55,3.55,0,0,1,40.41,33c-.31-.1-.44.39-.13.48a3.73,3.73,0,0,0,2.59-.13,1.2,1.2,0,0,0,.72-.83,1.1,1.1,0,0,0-.32-.93c-.61-.67-1.49-.53-2.31-.57a1.32,1.32,0,0,1-1-.42c-.17-.2-.29-.53-.05-.73s.9-.23,1.28-.22a5,5,0,0,1,1.49.29c.3.1.44-.38.13-.48Z"/><path class="c" d="M41.29,27.9a45.3,45.3,0,0,1,.27,7.18c0,.32.49.32.5,0a45.3,45.3,0,0,0-.27-7.18c0-.31-.53-.32-.5,0Z"/><path class="d" d="M34.07,16.1l5.16,2a10.25,10.25,0,0,1,2.34-4.17c1.83-2,6.5-3.83,6.5-3.83s1.33-.5,1,.83-4.67,3.12-4.67,3.12-1.83,1-1.83,1.72,4.66-1.72,4.66-1.72,1.67-1.62,3-1.62,4-.5,4.17.34.67,1.83,0,2.16-5.17.17-5.17.17L45.9,16.27l-1.5,1.16a26.75,26.75,0,0,1,4.83-.83c1.67,0,5.84.33,6.5,1.5s1.34,2.67,0,2.67a16.81,16.81,0,0,1-5.16-1.34,9.58,9.58,0,0,0-4.34-.33,5.91,5.91,0,0,0-2.33,1.67l5.17,1.66s2,2.37,1.83,3.35.33,2.32-.5,3.15-2.17.5-3,0-.83-2.63-.67-3.15-1.16-2.08-2.66-2.21-3.84-.87-5.17,0-4,.9-4.83,2.21-.67,2.17,0,3.66,1.66,2.49,1.5,3.16a1.92,1.92,0,0,1-2.07,1.33,3.8,3.8,0,0,1-3.1-2.5c-.33-1.16-1.17-2.5-.83-4s2.5-3.86,2.5-3.86l-1.5-.8Z"/><path class="e" d="M5.57,3.8,2.41.44a5.12,5.12,0,0,1-2,.72v16l28,7.16,4.5-10Z"/><circle class="f" cx="14.82" cy="10.34" r="1.27"/><circle class="f" cx="18.17" cy="11.61" r="1.27"/><circle class="f" cx="21.63" cy="12.87" r="1.27"/><rect class="g" x="0.42" y="43.43" width="160.8" height="3.65"/><polyline class="h" points="20.94 47.18 28.36 47.18 19.98 43.34 12.52 43.34"/><polyline class="h" points="49.65 47.18 57.07 47.18 48.69 43.34 41.23 43.34"/><polyline class="h" points="77.65 47.09 85.07 47.09 76.69 43.24 69.23 43.24"/><polyline class="h" points="106.27 47.09 113.69 47.09 105.32 43.24 97.86 43.24"/><polyline class="h" points="135.27 47.18 142.69 47.18 134.32 43.34 126.86 43.34"/><rect class="g" y="0.19" width="160.8" height="3.65"/><polyline class="h" points="20.94 3.94 28.36 3.94 19.98 0.1 12.52 0.1"/><polyline class="h" points="49.65 3.94 57.07 3.94 48.69 0.1 41.23 0.1"/><polyline class="h" points="77.65 3.85 85.07 3.85 76.69 0 69.23 0"/><polyline class="h" points="106.27 3.85 113.69 3.85 105.32 0 97.86 0"/><polyline class="h" points="135.27 3.94 142.69 3.94 134.32 0.1 126.86 0.1"/><text class="i" transform="translate(62.07 17.29) scale(0.56 1)">INVESTIR EM AÇÕES COM</text><text class="j" transform="translate(64.92 37.37) scale(0.46 1)">POUCO DINHEI<tspan class="k" x="174.95" y="0">R</tspan><tspan x="191.03" y="0">O</tspan></text></svg>