<svg xmlns="http://www.w3.org/2000/svg" viewBox="0 0 76.51 15.12"><defs><style>.a{isolation:isolate;}.b{mix-blend-mode:multiply;}.c,.f{fill:#1d1d1b;}.c,.d,.e,.f,.g,.h{stroke:#1d1d1b;stroke-miterlimit:10;}.c,.d,.e{stroke-width:0.05px;}.d,.g{fill:#fff;}.e,.h{fill:#f39200;}.f,.g,.h{stroke-width:0.01px;}</style></defs><title>logo-sala-mineira-do-empreendedor-lagoa-dos-patos-mg</title><g class="a"><g class="b"><path class="c" d="M.33,6.92l1.85-.18a3.19,3.19,0,0,0,.25,1.09.93.93,0,0,0,.86.61.73.73,0,0,0,.64-.31,1.15,1.15,0,0,0,.23-.72A1.2,1.2,0,0,0,4,6.71a2.07,2.07,0,0,0-1-.58A3.83,3.83,0,0,1,1.11,4.91,3.29,3.29,0,0,1,.56,3,3.82,3.82,0,0,1,.85,1.5,2.34,2.34,0,0,1,1.69.42,2.73,2.73,0,0,1,3.25,0,2.32,2.32,0,0,1,5.09.74,3.82,3.82,0,0,1,5.85,3L4,3.19a2,2,0,0,0-.31-1,.77.77,0,0,0-.65-.3.59.59,0,0,0-.51.23.92.92,0,0,0-.17.55.77.77,0,0,0,.14.44,1.36,1.36,0,0,0,.66.37A6.22,6.22,0,0,1,5,4.37a2.5,2.5,0,0,1,.8,1.12A4.12,4.12,0,0,1,6.06,7a4.74,4.74,0,0,1-.34,1.78A2.71,2.71,0,0,1,4.78,10a2.53,2.53,0,0,1-1.52.43A2.42,2.42,0,0,1,1,9.43,5.09,5.09,0,0,1,.33,6.92Z"/><path class="c" d="M11.36,8.59H9.15l-.31,1.65h-2L9.22.2h2.13l2.37,10h-2ZM11,6.41l-.7-3.61L9.57,6.41Z"/><path class="c" d="M14.79.2h1.95V7.77h3v2.47h-5Z"/><path class="c" d="M25,8.59H22.78l-.31,1.65h-2L22.85.2H25l2.38,10H25.31Zm-.41-2.18-.7-3.61L23.2,6.41Z"/><path class="c" d="M31.78.2h2.57l1,6.11,1-6.11h2.57v10h-1.6V2.58l-1.23,7.66H34.61L33.38,2.58v7.66h-1.6Z"/><path class="c" d="M40.65.2h2v10h-2Z"/><path class="c" d="M44.46.2h1.82l2.38,5.56V.2H50.5v10H48.66L46.3,4.73v5.51H44.46Z"/><path class="c" d="M52.24.2h5.23V2.34H54.19v1.6h3V6h-3V8h3.37v2.27H52.24Z"/><path class="c" d="M59.13.2h2v10h-2Z"/><path class="c" d="M63,10.24V.2h3.26a3.16,3.16,0,0,1,1.38.24,1.76,1.76,0,0,1,.77.92A4,4,0,0,1,68.66,3a4.18,4.18,0,0,1-.23,1.44,2.5,2.5,0,0,1-.62,1,1.78,1.78,0,0,1-.68.4,1.87,1.87,0,0,1,.51.37,3.34,3.34,0,0,1,.31.53,3.72,3.72,0,0,1,.27.62l1,2.91H67l-1-3.07a2.69,2.69,0,0,0-.35-.77.63.63,0,0,0-.48-.23h-.17v4.07Zm2-6h.82a2.12,2.12,0,0,0,.52-.14.58.58,0,0,0,.31-.31,1.38,1.38,0,0,0,.12-.59,1.21,1.21,0,0,0-.19-.74.84.84,0,0,0-.73-.26h-.85Z"/><path class="c" d="M74.12,8.59H71.9l-.31,1.65h-2L72,.2H74.1l2.38,10h-2Zm-.41-2.18L73,2.8l-.69,3.61Z"/></g><path class="d" d="M0,6.92l1.85-.18a3.19,3.19,0,0,0,.25,1.09A.93.93,0,0,0,3,8.44a.73.73,0,0,0,.64-.31,1.15,1.15,0,0,0,.23-.72,1.2,1.2,0,0,0-.21-.7,2.07,2.07,0,0,0-1-.58A3.83,3.83,0,0,1,.81,4.91,3.29,3.29,0,0,1,.26,3,3.82,3.82,0,0,1,.55,1.5,2.34,2.34,0,0,1,1.39.42,2.73,2.73,0,0,1,3,0,2.32,2.32,0,0,1,4.79.74,3.82,3.82,0,0,1,5.55,3l-1.84.17a2,2,0,0,0-.31-1,.77.77,0,0,0-.65-.3.59.59,0,0,0-.51.23.92.92,0,0,0-.17.55.77.77,0,0,0,.14.44,1.36,1.36,0,0,0,.66.37,6.22,6.22,0,0,1,1.83.88,2.5,2.5,0,0,1,.8,1.12A4.12,4.12,0,0,1,5.76,7a4.74,4.74,0,0,1-.34,1.78A2.71,2.71,0,0,1,4.48,10,2.53,2.53,0,0,1,3,10.42a2.42,2.42,0,0,1-2.23-1A5.09,5.09,0,0,1,0,6.92Z"/><path class="d" d="M11.06,8.59H8.85l-.31,1.65h-2L8.92.2h2.13l2.37,10h-2Zm-.4-2.18L10,2.8,9.27,6.41Z"/><path class="d" d="M14.49.2h2V7.77h3v2.47h-5Z"/><path class="d" d="M24.7,8.59H22.48l-.31,1.65h-2L22.55.2h2.13l2.38,10H25Zm-.41-2.18-.7-3.61L22.9,6.41Z"/><path class="e" d="M31.48.2h2.57l1,6.11L36,.2h2.57v10H37V2.58l-1.23,7.66H34.31L33.08,2.58v7.66h-1.6Z"/><path class="e" d="M40.35.2h2v10h-2Z"/><path class="e" d="M44.16.2H46l2.38,5.56V.2H50.2v10H48.36L46,4.73v5.51H44.16Z"/><path class="e" d="M51.94.2h5.23V2.34H53.89v1.6h3V6h-3V8h3.37v2.27H51.94Z"/><path class="e" d="M58.83.2h2v10h-2Z"/><path class="e" d="M62.65,10.24V.2h3.26a3.16,3.16,0,0,1,1.38.24,1.76,1.76,0,0,1,.77.92A4,4,0,0,1,68.36,3a4.18,4.18,0,0,1-.23,1.44,2.5,2.5,0,0,1-.62,1,1.78,1.78,0,0,1-.68.4,1.87,1.87,0,0,1,.51.37,3.34,3.34,0,0,1,.31.53,3.72,3.72,0,0,1,.27.62l1,2.91H66.66l-1-3.07a2.69,2.69,0,0,0-.35-.77.63.63,0,0,0-.48-.23h-.17v4.07Zm2-6h.82A2.12,2.12,0,0,0,66,4.13a.58.58,0,0,0,.31-.31,1.38,1.38,0,0,0,.12-.59,1.21,1.21,0,0,0-.19-.74.84.84,0,0,0-.73-.26h-.85Z"/><path class="e" d="M73.82,8.59H71.6l-.31,1.65h-2L71.67.2H73.8l2.38,10H74.13Zm-.41-2.18L72.72,2.8,72,6.41Z"/><g class="b"><path class="f" d="M10.46,11.1v2.56c0,.19,0,.4,0,.55h-.26v-.37h0a.59.59,0,0,1-.54.41c-.38,0-.67-.43-.67-1.07S9.3,12,9.69,12a.51.51,0,0,1,.47.33h0V11.1ZM10.17,13a.86.86,0,0,0,0-.16c-.05-.25-.2-.45-.42-.45s-.47.35-.47.82.16.78.47.78.36-.17.42-.46a.81.81,0,0,0,0-.16Z"/><path class="f" d="M12.48,13.13c0,.78-.4,1.12-.78,1.12s-.76-.42-.76-1.08.35-1.13.78-1.13S12.48,12.48,12.48,13.13Zm-1.25,0c0,.47.2.81.48.81s.48-.34.48-.82-.13-.81-.47-.81S11.23,12.75,11.23,13.15Z"/><path class="f" d="M14.93,12.82h-.86v1.07h1v.32H13.79v-3H15v.32h-.91v.93h.86Z"/><path class="f" d="M15.51,12.66c0-.22,0-.4,0-.57h.25l0,.34h0a.54.54,0,0,1,.49-.39c.22,0,.38.18.45.43h0a.83.83,0,0,1,.17-.28.45.45,0,0,1,.35-.15c.21,0,.52.19.52.92v1.25h-.28V13c0-.41-.11-.65-.34-.65s-.29.16-.34.35a.54.54,0,0,0,0,.19v1.31h-.28V12.94c0-.34-.11-.58-.33-.58s-.31.19-.35.38a.58.58,0,0,0,0,.19v1.28h-.28Z"/><path class="f" d="M18.35,12.78c0-.27,0-.49,0-.69h.26l0,.36h0a.63.63,0,0,1,.56-.41c.38,0,.67.43.67,1.08s-.34,1.13-.72,1.13a.52.52,0,0,1-.48-.33h0v1.15h-.28Zm.28.56c0,.06,0,.11,0,.16.06.27.23.45.44.45s.47-.33.47-.82-.16-.78-.46-.78-.38.19-.44.47a.88.88,0,0,0,0,.16Z"/><path class="f" d="M20.32,12.75c0-.25,0-.46,0-.66h.25v.42h0c.07-.29.24-.47.43-.47l.08,0v.36l-.09,0c-.21,0-.35.21-.39.5,0,0,0,.11,0,.18v1.13h-.29Z"/><path class="f" d="M21.64,13.22c0,.52.25.73.54.73a.83.83,0,0,0,.44-.11l.05.28a1,1,0,0,1-.53.13c-.48,0-.77-.43-.77-1.07s.28-1.14.74-1.14.65.61.65,1c0,.08,0,.14,0,.18Zm.84-.28c0-.24-.07-.62-.4-.62s-.41.36-.44.62Z"/><path class="f" d="M23.4,13.22c0,.52.25.73.54.73a.79.79,0,0,0,.43-.11l.05.28a1,1,0,0,1-.52.13c-.49,0-.78-.43-.78-1.07S23.4,12,23.86,12s.66.61.66,1c0,.08,0,.14,0,.18Zm.84-.28c0-.24-.08-.62-.4-.62s-.42.36-.44.62Z"/><path class="f" d="M25,12.66c0-.22,0-.4,0-.57h.25l0,.35h0a.57.57,0,0,1,.52-.4c.22,0,.56.18.56.9v1.27h-.29V13c0-.34-.1-.63-.37-.63s-.33.18-.38.39a.52.52,0,0,0,0,.18v1.28H25Z"/><path class="f" d="M28.29,11.1v2.56c0,.19,0,.4,0,.55H28v-.37h0a.59.59,0,0,1-.54.41c-.38,0-.67-.43-.67-1.07s.32-1.14.71-1.14a.51.51,0,0,1,.47.33h0V11.1ZM28,13a.86.86,0,0,0,0-.16c0-.25-.2-.45-.42-.45s-.47.35-.47.82.16.78.47.78.36-.17.42-.46a.81.81,0,0,0,0-.16Z"/><path class="f" d="M29,13.22c0,.52.26.73.55.73a.79.79,0,0,0,.43-.11l.05.28a1,1,0,0,1-.52.13c-.49,0-.78-.43-.78-1.07s.28-1.14.74-1.14.65.61.65,1a.87.87,0,0,1,0,.18Zm.85-.28c0-.24-.08-.62-.4-.62s-.42.36-.44.62Z"/><path class="f" d="M32,11.1v2.56c0,.19,0,.4,0,.55h-.26v-.37h0a.59.59,0,0,1-.54.41c-.38,0-.67-.43-.67-1.07s.32-1.14.7-1.14a.51.51,0,0,1,.48.33h0V11.1ZM31.72,13a.88.88,0,0,0,0-.16c0-.25-.2-.45-.41-.45s-.47.35-.47.82.15.78.46.78.37-.17.42-.46a.78.78,0,0,0,0-.16Z"/><path class="f" d="M34,13.13c0,.78-.4,1.12-.79,1.12s-.75-.42-.75-1.08.34-1.13.78-1.13S34,12.48,34,13.13Zm-1.25,0c0,.47.2.81.48.81s.48-.34.48-.82-.14-.81-.48-.81S32.78,12.75,32.78,13.15Z"/><path class="f" d="M34.51,12.75c0-.25,0-.46,0-.66h.25v.42h0c.08-.29.25-.47.44-.47l.08,0v.36l-.09,0c-.21,0-.35.21-.39.5a1,1,0,0,0,0,.18v1.13h-.29Z"/><path class="f" d="M37.88,11.1v2.56c0,.19,0,.4,0,.55h-.26v-.37h0a.58.58,0,0,1-.54.41c-.38,0-.67-.43-.67-1.07s.32-1.14.71-1.14a.51.51,0,0,1,.47.33h0V11.1ZM37.59,13a.86.86,0,0,0,0-.16c0-.25-.2-.45-.42-.45s-.47.35-.47.82.16.78.47.78.37-.17.42-.46a.81.81,0,0,0,0-.16Z"/><path class="f" d="M38.63,13.22c0,.52.26.73.55.73a.79.79,0,0,0,.43-.11l0,.28a1,1,0,0,1-.52.13c-.49,0-.78-.43-.78-1.07S38.64,12,39.1,12s.65.61.65,1a.87.87,0,0,1,0,.18Zm.85-.28c0-.24-.08-.62-.4-.62s-.42.36-.44.62Z"/><path class="f" d="M41.05,11.26h.29v2.63h.94v.32H41.05Z"/><path class="f" d="M43.58,14.21l0-.27h0a.57.57,0,0,1-.49.31c-.32,0-.48-.3-.48-.6,0-.52.34-.8,1-.79v0c0-.18,0-.49-.36-.49a.66.66,0,0,0-.41.15l-.07-.25a.83.83,0,0,1,.52-.19c.49,0,.6.44.6.87v.79a4,4,0,0,0,0,.51Zm0-1.08c-.32,0-.67.06-.67.47,0,.25.12.37.27.37a.43.43,0,0,0,.38-.35.59.59,0,0,0,0-.13Z"/><path class="f" d="M45.76,12.09c0,.15,0,.32,0,.58V13.9a1.49,1.49,0,0,1-.23,1,.69.69,0,0,1-.57.26.81.81,0,0,1-.53-.18l.07-.29a.74.74,0,0,0,.47.17c.29,0,.5-.21.5-.74v-.24h0a.55.55,0,0,1-.5.36c-.4,0-.68-.45-.68-1S44.63,12,45,12a.53.53,0,0,1,.5.37h0l0-.32Zm-.3.83a.47.47,0,0,0,0-.17c0-.22-.19-.41-.4-.41s-.47.31-.47.8.16.76.47.76a.45.45,0,0,0,.4-.39,1.49,1.49,0,0,0,0-.21Z"/><path class="f" d="M47.77,13.13c0,.78-.4,1.12-.78,1.12s-.76-.42-.76-1.08S46.57,12,47,12,47.77,12.48,47.77,13.13Zm-1.25,0c0,.47.2.81.48.81s.48-.34.48-.82-.14-.81-.48-.81S46.52,12.75,46.52,13.15Z"/><path class="f" d="M49.13,14.21l0-.27h0a.57.57,0,0,1-.49.31c-.32,0-.48-.3-.48-.6,0-.52.34-.8.95-.79v0c0-.18,0-.49-.36-.49a.66.66,0,0,0-.41.15l-.07-.25a.85.85,0,0,1,.52-.19c.49,0,.6.44.6.87v.79a4,4,0,0,0,0,.51Zm0-1.08c-.32,0-.67.06-.67.47,0,.25.12.37.27.37a.43.43,0,0,0,.38-.35.59.59,0,0,0,0-.13Z"/><path class="f" d="M52.12,11.1v2.56c0,.19,0,.4,0,.55h-.26v-.37h0a.59.59,0,0,1-.54.41c-.38,0-.67-.43-.67-1.07S51,12,51.35,12a.51.51,0,0,1,.48.33h0V11.1ZM51.84,13a.88.88,0,0,0,0-.16c0-.25-.19-.45-.41-.45s-.47.35-.47.82.15.78.46.78.37-.17.42-.46a.78.78,0,0,0,0-.16Z"/><path class="f" d="M54.15,13.13c0,.78-.4,1.12-.79,1.12s-.75-.42-.75-1.08S53,12,53.39,12,54.15,12.48,54.15,13.13Zm-1.25,0c0,.47.2.81.48.81s.48-.34.48-.82-.14-.81-.48-.81S52.9,12.75,52.9,13.15Z"/><path class="f" d="M54.59,13.81A.62.62,0,0,0,55,14a.29.29,0,0,0,.31-.31c0-.18-.08-.28-.29-.39a.63.63,0,0,1-.42-.6.56.56,0,0,1,.54-.62.65.65,0,0,1,.39.13l-.07.28a.53.53,0,0,0-.32-.12.27.27,0,0,0-.27.29c0,.17.1.25.3.36a.65.65,0,0,1,.42.64.57.57,0,0,1-.59.63.72.72,0,0,1-.45-.15Z"/><path class="f" d="M56.87,11.29a2.61,2.61,0,0,1,.54,0,.79.79,0,0,1,.62.24,1,1,0,0,1,.19.62,1,1,0,0,1-.17.63.79.79,0,0,1-.67.32.86.86,0,0,1-.23,0v1.18h-.28Zm.28,1.43a.78.78,0,0,0,.24,0c.34,0,.55-.23.55-.63s-.21-.58-.52-.58a.87.87,0,0,0-.27,0Z"/><path class="f" d="M59.51,14.21l0-.27h0a.54.54,0,0,1-.48.31c-.32,0-.48-.3-.48-.6,0-.52.34-.8,1-.79v0c0-.18,0-.49-.36-.49a.66.66,0,0,0-.41.15l-.07-.25a.83.83,0,0,1,.52-.19c.48,0,.6.44.6.87v.79a4,4,0,0,0,0,.51Zm0-1.08c-.31,0-.67.06-.67.47,0,.25.13.37.28.37a.43.43,0,0,0,.38-.35.57.57,0,0,0,0-.13Z"/><path class="f" d="M60.66,11.48v.61h.41v.29h-.41v1.14c0,.27.05.41.21.41l.17,0v.29a.52.52,0,0,1-.25.05.36.36,0,0,1-.31-.16,1,1,0,0,1-.11-.55V12.38h-.25v-.29h.25v-.51Z"/><path class="f" d="M62.92,13.13c0,.78-.4,1.12-.78,1.12s-.76-.42-.76-1.08.34-1.13.78-1.13S62.92,12.48,62.92,13.13Zm-1.25,0c0,.47.2.81.48.81s.48-.34.48-.82-.14-.81-.47-.81S61.67,12.75,61.67,13.15Z"/><path class="f" d="M63.37,13.81a.57.57,0,0,0,.37.15.29.29,0,0,0,.31-.31c0-.18-.08-.28-.29-.39a.63.63,0,0,1-.42-.6.57.57,0,0,1,.54-.62.63.63,0,0,1,.39.13l-.07.28a.5.5,0,0,0-.32-.12.27.27,0,0,0-.27.29c0,.17.1.25.3.36a.65.65,0,0,1,.42.64.57.57,0,0,1-.59.63.76.76,0,0,1-.45-.15Z"/><path class="f" d="M65.48,12.88v.29h-.8v-.29Z"/><path class="f" d="M67.8,12.91c0-.41,0-.9,0-1.27h0c-.07.35-.16.71-.28,1.12l-.38,1.43h-.22l-.36-1.4c-.1-.42-.19-.8-.25-1.15h0c0,.37,0,.86,0,1.3l-.06,1.27h-.27l.16-3h.36l.37,1.42c.09.37.17.69.22,1h0c.06-.3.14-.62.24-1l.39-1.42H68l.14,3h-.28Z"/><path class="f" d="M70.37,14.07a1.48,1.48,0,0,1-.68.17,1,1,0,0,1-.82-.39,1.84,1.84,0,0,1-.31-1.1c0-.88.46-1.52,1.2-1.52a1.05,1.05,0,0,1,.54.13l-.06.32a.92.92,0,0,0-.49-.13c-.54,0-.89.44-.89,1.18s.34,1.19.85,1.19a.65.65,0,0,0,.38-.08V13h-.45v-.3h.73Z"/></g><path class="g" d="M10.36,11.1v2.56c0,.19,0,.4,0,.55h-.26v-.37h0a.59.59,0,0,1-.54.41c-.38,0-.67-.43-.67-1.07S9.2,12,9.59,12a.51.51,0,0,1,.47.33h0V11.1ZM10.07,13a.86.86,0,0,0,0-.16c-.05-.25-.2-.45-.42-.45s-.47.35-.47.82.16.78.47.78.36-.17.42-.46a.81.81,0,0,0,0-.16Z"/><path class="g" d="M12.38,13.13c0,.78-.4,1.12-.78,1.12s-.76-.42-.76-1.08.35-1.13.78-1.13S12.38,12.48,12.38,13.13Zm-1.25,0c0,.47.2.81.48.81s.48-.34.48-.82-.13-.81-.47-.81S11.13,12.75,11.13,13.15Z"/><path class="g" d="M14.83,12.82H14v1.07h1v.32H13.69v-3h1.19v.32H14v.93h.86Z"/><path class="g" d="M15.41,12.66c0-.22,0-.4,0-.57h.25l0,.34h0a.54.54,0,0,1,.49-.39c.22,0,.38.18.45.43h0a.83.83,0,0,1,.17-.28.45.45,0,0,1,.35-.15c.21,0,.52.19.52.92v1.25h-.28V13c0-.41-.11-.65-.34-.65s-.29.16-.34.35a.54.54,0,0,0,0,.19v1.31h-.28V12.94c0-.34-.11-.58-.33-.58s-.31.19-.35.38a.58.58,0,0,0,0,.19v1.28h-.28Z"/><path class="g" d="M18.25,12.78c0-.27,0-.49,0-.69h.26l0,.36h0a.63.63,0,0,1,.56-.41c.38,0,.67.43.67,1.08s-.34,1.13-.72,1.13a.52.52,0,0,1-.48-.33h0v1.15h-.28Zm.28.56c0,.06,0,.11,0,.16.06.27.23.45.44.45s.47-.33.47-.82-.16-.78-.46-.78-.38.19-.44.47a.88.88,0,0,0,0,.16Z"/><path class="g" d="M20.22,12.75c0-.25,0-.46,0-.66h.25v.42h0c.07-.29.24-.47.43-.47a.15.15,0,0,1,.08,0v.36l-.09,0c-.21,0-.35.21-.39.5,0,0,0,.11,0,.18v1.13h-.29Z"/><path class="g" d="M21.54,13.22c0,.52.25.73.54.73a.83.83,0,0,0,.44-.11l.05.28a1,1,0,0,1-.53.13c-.48,0-.77-.43-.77-1.07S21.55,12,22,12s.65.61.65,1c0,.08,0,.14,0,.18Zm.84-.28c0-.24-.07-.62-.4-.62s-.41.36-.44.62Z"/><path class="g" d="M23.3,13.22c0,.52.25.73.54.73a.79.79,0,0,0,.43-.11l.05.28a1,1,0,0,1-.52.13c-.49,0-.78-.43-.78-1.07S23.3,12,23.76,12s.66.61.66,1c0,.08,0,.14,0,.18Zm.84-.28c0-.24-.08-.62-.4-.62s-.42.36-.44.62Z"/><path class="g" d="M24.89,12.66c0-.22,0-.4,0-.57h.25l0,.35h0a.57.57,0,0,1,.52-.4c.22,0,.56.18.56.9v1.27H26V13c0-.34-.1-.63-.37-.63s-.33.18-.38.39a.52.52,0,0,0,0,.18v1.28h-.29Z"/><path class="g" d="M28.19,11.1v2.56c0,.19,0,.4,0,.55h-.26v-.37h0a.59.59,0,0,1-.54.41c-.38,0-.67-.43-.67-1.07S27,12,27.42,12a.51.51,0,0,1,.47.33h0V11.1ZM27.9,13a.86.86,0,0,0,0-.16c-.05-.25-.2-.45-.42-.45s-.47.35-.47.82.16.78.47.78.36-.17.42-.46a.81.81,0,0,0,0-.16Z"/><path class="g" d="M28.94,13.22c0,.52.26.73.55.73a.79.79,0,0,0,.43-.11l0,.28a1,1,0,0,1-.52.13c-.49,0-.78-.43-.78-1.07S29,12,29.41,12s.65.61.65,1a.87.87,0,0,1,0,.18Zm.85-.28c0-.24-.08-.62-.4-.62s-.42.36-.44.62Z"/><path class="g" d="M31.9,11.1v2.56c0,.19,0,.4,0,.55h-.26v-.37h0a.59.59,0,0,1-.54.41c-.38,0-.67-.43-.67-1.07s.32-1.14.7-1.14a.51.51,0,0,1,.48.33h0V11.1ZM31.62,13a.88.88,0,0,0,0-.16c0-.25-.2-.45-.41-.45s-.47.35-.47.82.15.78.46.78.37-.17.42-.46a.78.78,0,0,0,0-.16Z"/><path class="g" d="M33.93,13.13c0,.78-.4,1.12-.79,1.12s-.75-.42-.75-1.08.34-1.13.78-1.13S33.93,12.48,33.93,13.13Zm-1.25,0c0,.47.2.81.48.81s.48-.34.48-.82-.14-.81-.48-.81S32.68,12.75,32.68,13.15Z"/><path class="g" d="M34.41,12.75c0-.25,0-.46,0-.66h.25v.42h0c.08-.29.25-.47.44-.47l.08,0v.36l-.09,0c-.21,0-.35.21-.39.5a1,1,0,0,0,0,.18v1.13h-.29Z"/><path class="g" d="M37.78,11.1v2.56c0,.19,0,.4,0,.55h-.26v-.37h0a.58.58,0,0,1-.54.41c-.38,0-.67-.43-.67-1.07S36.62,12,37,12a.51.51,0,0,1,.47.33h0V11.1ZM37.49,13a.86.86,0,0,0,0-.16c0-.25-.2-.45-.42-.45s-.47.35-.47.82.16.78.47.78.37-.17.42-.46a.81.81,0,0,0,0-.16Z"/><path class="g" d="M38.53,13.22c0,.52.26.73.55.73a.79.79,0,0,0,.43-.11l.05.28a1,1,0,0,1-.52.13c-.49,0-.78-.43-.78-1.07S38.54,12,39,12s.65.61.65,1a.87.87,0,0,1,0,.18Zm.85-.28c0-.24-.08-.62-.4-.62s-.42.36-.44.62Z"/><path class="h" d="M41,11.26h.29v2.63h.94v.32H41Z"/><path class="h" d="M43.48,14.21l0-.27h0a.57.57,0,0,1-.49.31c-.32,0-.48-.3-.48-.6,0-.52.34-.8,1-.79v0c0-.18,0-.49-.36-.49a.66.66,0,0,0-.41.15l-.07-.25a.83.83,0,0,1,.52-.19c.49,0,.6.44.6.87v.79a4,4,0,0,0,0,.51Zm0-1.08c-.32,0-.67.06-.67.47,0,.25.12.37.27.37a.43.43,0,0,0,.38-.35.59.59,0,0,0,0-.13Z"/><path class="h" d="M45.66,12.09c0,.15,0,.32,0,.58V13.9a1.49,1.49,0,0,1-.23,1,.69.69,0,0,1-.57.26.81.81,0,0,1-.53-.18l.07-.29a.74.74,0,0,0,.47.17c.29,0,.5-.21.5-.74v-.24h0a.55.55,0,0,1-.5.36c-.4,0-.68-.45-.68-1s.35-1.13.71-1.13a.53.53,0,0,1,.5.37h0l0-.32Zm-.3.83a.47.47,0,0,0,0-.17c-.05-.22-.19-.41-.4-.41s-.47.31-.47.8.16.76.47.76a.45.45,0,0,0,.4-.39,1.49,1.49,0,0,0,0-.21Z"/><path class="h" d="M47.67,13.13c0,.78-.4,1.12-.78,1.12s-.76-.42-.76-1.08.34-1.13.78-1.13S47.67,12.48,47.67,13.13Zm-1.25,0c0,.47.2.81.48.81s.48-.34.48-.82-.14-.81-.48-.81S46.42,12.75,46.42,13.15Z"/><path class="h" d="M49,14.21l0-.27h0a.57.57,0,0,1-.49.31c-.32,0-.48-.3-.48-.6,0-.52.34-.8.95-.79v0c0-.18,0-.49-.36-.49a.66.66,0,0,0-.41.15l-.07-.25a.85.85,0,0,1,.52-.19c.49,0,.6.44.6.87v.79a4,4,0,0,0,0,.51Zm0-1.08c-.32,0-.67.06-.67.47,0,.25.12.37.27.37a.43.43,0,0,0,.38-.35.59.59,0,0,0,0-.13Z"/><path class="h" d="M52,11.1v2.56c0,.19,0,.4,0,.55h-.26v-.37h0a.59.59,0,0,1-.54.41c-.38,0-.67-.43-.67-1.07s.32-1.14.7-1.14a.51.51,0,0,1,.48.33h0V11.1ZM51.74,13a.88.88,0,0,0,0-.16c0-.25-.19-.45-.41-.45s-.47.35-.47.82.15.78.46.78.37-.17.42-.46a.78.78,0,0,0,0-.16Z"/><path class="h" d="M54.05,13.13c0,.78-.4,1.12-.79,1.12s-.75-.42-.75-1.08.34-1.13.78-1.13S54.05,12.48,54.05,13.13Zm-1.25,0c0,.47.2.81.48.81s.48-.34.48-.82-.14-.81-.48-.81S52.8,12.75,52.8,13.15Z"/><path class="h" d="M54.49,13.81a.62.62,0,0,0,.38.15.29.29,0,0,0,.31-.31c0-.18-.08-.28-.29-.39a.63.63,0,0,1-.42-.6A.56.56,0,0,1,55,12a.65.65,0,0,1,.39.13l-.07.28a.53.53,0,0,0-.32-.12.27.27,0,0,0-.27.29c0,.17.1.25.3.36a.65.65,0,0,1,.42.64.57.57,0,0,1-.59.63.72.72,0,0,1-.45-.15Z"/><path class="h" d="M56.77,11.29a2.61,2.61,0,0,1,.54,0,.79.79,0,0,1,.62.24,1,1,0,0,1,.19.62,1,1,0,0,1-.17.63.79.79,0,0,1-.67.32.86.86,0,0,1-.23,0v1.18h-.28Zm.28,1.43a.78.78,0,0,0,.24,0c.34,0,.55-.23.55-.63s-.21-.58-.52-.58a.87.87,0,0,0-.27,0Z"/><path class="h" d="M59.41,14.21l0-.27h0a.54.54,0,0,1-.48.31c-.32,0-.48-.3-.48-.6,0-.52.34-.8,1-.79v0c0-.18,0-.49-.36-.49a.66.66,0,0,0-.41.15l-.07-.25A.83.83,0,0,1,59,12c.48,0,.6.44.6.87v.79a4,4,0,0,0,0,.51Zm0-1.08c-.31,0-.67.06-.67.47,0,.25.13.37.28.37a.43.43,0,0,0,.38-.35.57.57,0,0,0,0-.13Z"/><path class="h" d="M60.56,11.48v.61H61v.29h-.41v1.14c0,.27,0,.41.21.41l.17,0v.29a.52.52,0,0,1-.25.05.36.36,0,0,1-.31-.16,1,1,0,0,1-.11-.55V12.38H60v-.29h.25v-.51Z"/><path class="h" d="M62.82,13.13c0,.78-.4,1.12-.78,1.12s-.76-.42-.76-1.08.34-1.13.78-1.13S62.82,12.48,62.82,13.13Zm-1.25,0c0,.47.2.81.48.81s.48-.34.48-.82-.14-.81-.47-.81S61.57,12.75,61.57,13.15Z"/><path class="h" d="M63.27,13.81a.57.57,0,0,0,.37.15.29.29,0,0,0,.31-.31c0-.18-.08-.28-.29-.39a.63.63,0,0,1-.42-.6.57.57,0,0,1,.54-.62.63.63,0,0,1,.39.13l-.07.28a.5.5,0,0,0-.32-.12.27.27,0,0,0-.27.29c0,.17.1.25.3.36a.65.65,0,0,1,.42.64.57.57,0,0,1-.59.63.76.76,0,0,1-.45-.15Z"/><path class="h" d="M65.38,12.88v.29h-.8v-.29Z"/><path class="h" d="M67.7,12.91c0-.41,0-.9,0-1.27h0c-.07.35-.16.71-.28,1.12L67,14.19h-.22l-.36-1.4c-.1-.42-.19-.8-.25-1.15h0c0,.37,0,.86,0,1.3l-.06,1.27h-.27l.16-3h.36l.37,1.42c.09.37.17.69.22,1h0c.06-.3.14-.62.24-1l.39-1.42h.36l.14,3h-.28Z"/><path class="h" d="M70.27,14.07a1.48,1.48,0,0,1-.68.17,1,1,0,0,1-.82-.39,1.84,1.84,0,0,1-.31-1.1c0-.88.46-1.52,1.2-1.52a1.05,1.05,0,0,1,.54.13l-.06.32a.92.92,0,0,0-.49-.13c-.54,0-.89.44-.89,1.18s.34,1.19.85,1.19a.65.65,0,0,0,.38-.08V13h-.45v-.3h.73Z"/></g></svg>