<?xml version="1.0" encoding="utf-8"?>
<!-- Generator: Adobe Illustrator 25.2.1, SVG Export Plug-In . SVG Version: 6.00 Build 0)  -->
<svg version="1.1" id="Layer_1" xmlns="http://www.w3.org/2000/svg" xmlns:xlink="http://www.w3.org/1999/xlink" x="0px" y="0px"
	 viewBox="0 0 1124.4 1002.7" style="enable-background:new 0 0 1124.4 1002.7;" xml:space="preserve">
<style type="text/css">
	.st0{fill:#6B48FF;}
	.st1{opacity:0.1;fill:#2A3756;}
	.st2{fill:#FFFFFF;}
	.st3{fill:#F2F2F2;}
	.st4{fill:#2A3756;}
	.st5{fill:#B9CAE3;}
	.st6{fill:#E2857E;}
	.st7{fill:#8CA1BA;}
	.st8{fill:#6A7E91;}
</style>
<path class="st0" d="M149.8,876.1C-61.8,653.9-14.1,155.3,190.8,40.2c179.8-100.9,450.7,110.4,626.9,248
	C984.6,418.4,1134,535,1117.5,655.3C1085.7,887.2,431.5,1171.8,149.8,876.1z"/>
<g>
	<path class="st1" d="M1033.4,701c0,8.5-148.7,13.1-299.8,13.1c-151.1,0-243.3-4.6-243.3-13.1c0-8.5,92.2-13.1,243.3-13.1
		C884.7,687.9,1033.4,692.6,1033.4,701z"/>
</g>
<g>
	<g>
		<g>
			<polygon class="st2" points="675.8,702 714.1,437.5 723.7,438.9 685.6,702 			"/>
			<polygon class="st2" points="949.1,702 911,438.9 920.6,437.5 958.9,702 			"/>
			<rect x="812.5" y="438.2" class="st2" width="9.7" height="246.7"/>
		</g>
		<g>
			<g>
				<rect x="686.9" y="195.4" class="st3" width="265" height="239"/>
				<g>
					<rect x="686.9" y="186.4" class="st4" width="265" height="9"/>
				</g>
				<g>
					<rect x="686.9" y="433.4" class="st4" width="265" height="10"/>
				</g>
			</g>
			<g>
				<g>
					<g>
						<rect x="760.2" y="254.8" class="st5" width="43.8" height="4.9"/>
						<rect x="760.2" y="264.5" class="st5" width="43.8" height="4.9"/>
						<rect x="760.2" y="274.1" class="st5" width="43.8" height="4.9"/>
						<rect x="760.2" y="283.7" class="st5" width="27.5" height="4.9"/>
					</g>
					<g>
						<path class="st4" d="M727.8,279.2V259c-11.2,0-20.2,9-20.2,20.2c0,11.2,9,20.2,20.2,20.2c11.2,0,20.2-9.1,20.2-20.2
							c0-3.4-0.8-6.6-2.3-9.4L727.8,279.2z"/>
						<path class="st6" d="M740,255.1c-3-1.7-6.5-2.7-10.2-2.7v20.2L740,255.1z"/>
						<path class="st5" d="M741.5,257.5L731.4,275l17.9-9.4C747.5,262.2,744.8,259.4,741.5,257.5z"/>
					</g>
				</g>
				<g>
					<rect x="706.2" y="211.7" class="st4" width="99.2" height="8.7"/>
					<rect x="706.2" y="226.9" class="st4" width="51" height="8.7"/>
				</g>
				<g>
					<rect x="851.2" y="348.5" class="st6" width="79.5" height="8.6"/>
					<rect x="851.2" y="363.6" class="st5" width="66" height="4.9"/>
					<rect x="851.2" y="373.2" class="st5" width="33.6" height="4.9"/>
					<rect x="851.2" y="382.7" class="st5" width="66" height="4.9"/>
					<rect x="851.2" y="392.3" class="st5" width="57.9" height="4.9"/>
					<rect x="851.2" y="402.2" class="st5" width="66" height="4.9"/>
				</g>
				<g>
					<g>
						<path class="st5" d="M872.2,280.1c-7,0-12.6-5.7-12.6-12.6c0-7,5.7-12.6,12.6-12.6c7,0,12.6,5.7,12.6,12.6
							C884.8,274.5,879.2,280.1,872.2,280.1z M872.2,257.6c-5.5,0-9.9,4.5-9.9,9.9c0,5.5,4.5,9.9,9.9,9.9s9.9-4.5,9.9-9.9
							C882.1,262.1,877.7,257.6,872.2,257.6z"/>
						<path class="st5" d="M872.2,294.5c-14.8,0-26.8-12.1-26.8-27c0-14.9,12-27,26.8-27c14.8,0,26.8,12.1,26.8,27
							C899,282.4,887,294.5,872.2,294.5z M872.2,243.2c-13.3,0-24.1,10.9-24.1,24.3c0,13.4,10.8,24.3,24.1,24.3
							c13.3,0,24.1-10.9,24.1-24.3C896.3,254.1,885.5,243.2,872.2,243.2z"/>
						<path class="st5" d="M872.2,306.9c-21.7,0-39.4-17.7-39.4-39.4c0-21.7,17.7-39.4,39.4-39.4c21.7,0,39.4,17.7,39.4,39.4
							C911.6,289.2,893.9,306.9,872.2,306.9z M872.2,230.9c-20.2,0-36.7,16.4-36.7,36.7c0,20.2,16.4,36.7,36.7,36.7
							c20.2,0,36.7-16.4,36.7-36.7C908.9,247.3,892.4,230.9,872.2,230.9z"/>
						<path class="st5" d="M872.2,322.2c-30.1,0-54.6-24.5-54.6-54.6c0-30.1,24.5-54.6,54.6-54.6s54.6,24.5,54.6,54.6
							C926.8,297.6,902.3,322.2,872.2,322.2z M872.2,215.6c-28.6,0-51.9,23.3-51.9,51.9c0,28.6,23.3,51.9,51.9,51.9
							c28.6,0,51.9-23.3,51.9-51.9C924.1,238.9,900.8,215.6,872.2,215.6z"/>
					</g>
					<g>
						<path class="st5" d="M872.2,283.3c-8.7,0-15.8-7.1-15.8-15.8h9c0,3.7,3,6.8,6.8,6.8V283.3z"/>
						<path class="st5" d="M899.4,280.2l-8.2-3.8c1.3-2.8,2-5.8,2-8.9c0-11.7-9.4-21.2-21-21.2c-3.5,0-7,0.9-10,2.6l-4.3-7.9
							c4.4-2.4,9.3-3.7,14.4-3.7c16.5,0,30,13.5,30,30.2C902.2,272,901.3,276.2,899.4,280.2z"/>
						<path class="st5" d="M842.7,251.6l-7.9-4.3c7.4-13.8,21.8-22.3,37.4-22.3c12.3,0,24,5.3,32.1,14.6l-6.8,5.9
							c-6.4-7.3-15.6-11.5-25.3-11.5C859.9,234,848.6,240.8,842.7,251.6z"/>
						<path class="st5" d="M872.2,325.3v-9c26.9,0,48.8-21.9,48.8-48.8c0-26.9-21.9-48.8-48.8-48.8v-9c31.9,0,57.8,25.9,57.8,57.8
							C930,299.4,904.1,325.3,872.2,325.3z"/>
					</g>
				</g>
				<g>
					<g id="_x33__6_">
						<g>
							<rect x="804.9" y="337.4" class="st4" width="20" height="72"/>
							<rect x="780.9" y="357.4" class="st4" width="18" height="52"/>
							<rect x="756.9" y="344.4" class="st4" width="18" height="65"/>
							<rect x="730.9" y="377.4" class="st4" width="19" height="32"/>
							<rect x="707.9" y="326.4" class="st6" width="18" height="83"/>
						</g>
					</g>
				</g>
			</g>
		</g>
	</g>
	<g id="_x30_3_3_x2F_4_2_">
		<g id="_x30_3_Standing_3_">
			<g id="head_10_">
				<path class="st6" d="M637.4,175.6c11.7-3,28.6,5.3,31.2,19c2.6,13.7,5.1,37.6-3.5,40.6c-3.8,1.3-18.5,0-18.5,0l3.1,16.3h-26.9
					l4.4-23.4C627.1,228.2,598.8,185.4,637.4,175.6z"/>
				<path class="st2" d="M648.7,192.9c-3.2,9.5,0,23.4-6.4,11.3c-3.1-5.9-7.9-4.3-10.4,0.4c-3.1,5.9,3.9,10.8,3.2,12.8
					c-0.7,2-6.6,10.5-8.1,10.8c-1.5,0.2-16.6-24.4-10-40.8c7.2-18,37.8-19.2,44.7-4.6C659.2,182.8,651.9,183.5,648.7,192.9z"/>
			</g>
			<g id="leg_20_">
				<path class="st2" d="M623.6,398.6c0,0,27.8,142.8,29,153.9c1.2,11.1-2.3,65.5,10.5,115.9l24.5,0.8c0.9-33.3,2.5-95.8,2.7-109.4
					c0.3-19.2,0.9-128.4,0.9-128.4S634.6,371.9,623.6,398.6z"/>
				<polygon class="st2" points="724.9,708.1 662.1,710.1 662.1,684 686.7,684 725.4,701.1 				"/>
				<polygon class="st6" points="665.7,684 684,684 684,669.2 665.3,668.5 				"/>
			</g>
		</g>
		<g id="_x30_3_Front_4_">
			<g id="leg_17_">
				<polygon class="st6" points="614.1,693.8 596.5,689 596.9,666.4 615.5,666.4 				"/>
				<path class="st2" d="M583.1,430.3c0,0,6.3,66.9,8.6,128.6c-4,51.6-0.3,102.1,0.4,109l26.1,0c0.2-13.5,3.1-62.4,8.9-106.4
					c8.4-64.6,20.6-135.8,20.6-135.8S593.9,403.5,583.1,430.3z"/>
				<polygon class="st2" points="618.2,711.7 587.7,711.7 587.7,704.4 596,684 614.6,684 618.2,704.4 				"/>
			</g>
			<path class="st4" d="M624.3,243c-12,1.2-33.4,12.8-36.9,16.2c-5.9,40.8-7,197-7,197l114.4,0.8c0,0,2.8-138.6-14-198.4
				c-5.5-9.2-26.5-13.6-32.7-15.4C647.5,243.2,624.6,243,624.3,243z"/>
		</g>
		<path class="st4" d="M592.5,255.7c-29.3,17.2-47.2,77.8-41.6,110c5.3,31,55.9,51.4,55.9,51.4S606.8,278.7,592.5,255.7z"/>
		<g id="hand_16_">
			<polygon class="st6" points="772.7,314.4 779.5,299.5 770.3,293.8 760.6,305 			"/>
			<path class="st4" d="M676.8,254.4c14.2,13.1,21,22.4,30.1,80.4c1.4,8.7,7,12.6,10,10c14.9-12.5,43.7-39.9,43.7-39.9l12,9.4
				c0,0-74.1,150-111.7,8.4C655.6,302.6,659.8,257.3,676.8,254.4z"/>
			<path class="st6" d="M773.7,279.1c-6.6,8.7-7.6,19.1-2.1,23.2c1.6,1.2,3.5,1.7,5.6,1.7c2.1-0.1,6.6-7.6,8.3-11
				c0.9-1.8,2-3.6,3.5-5.3c3.1-3.7,6.7-6.1,10-7.1c0.4-4.2-0.7-7.8-3.4-9.9C790.1,266.6,780.3,270.3,773.7,279.1z"/>
		</g>
	</g>
</g>
<g>
	<path class="st1" d="M953.9,927.2c0,7.9-198.3,14.2-443,14.2s-443-6.4-443-14.2c0-7.9,198.3-14.2,443-14.2S953.9,919.3,953.9,927.2
		z"/>
	<g id="_x30_3_Back">
		<g id="leg_45_">
			<polygon class="st6" points="787.4,897.6 766.5,895.2 763.1,869.5 784.3,866.2 			"/>
			<path class="st2" d="M738.5,748.3c4.4,59.3,17.4,115.9,19.4,123.7l29.7-4.5c-2.1-15.4-7.3-71.4-8.5-122.4
				C777.4,670.3,725.1,678.7,738.5,748.3z"/>
			<polygon class="st2" points="795.2,917.2 760.5,922.5 759.2,914.3 765.1,889.7 786.3,886.4 793.9,909 			"/>
		</g>
		<g id="leg_44_">
			<polygon class="st6" points="833,898.4 853.2,892.9 852.8,867 831.3,867 			"/>
			<path class="st2" d="M868.5,595.8c0,0-12.2,76.9-9.7,146.9c2.1,58.9,0.2,118-0.6,126l-30,0.1c-0.3-15.5-3.6-71.6-10.2-122.1
				c-9.7-74.3-23.7-156-23.7-156S856.2,565,868.5,595.8z"/>
			<polygon class="st2" points="828.3,918.9 863.4,918.9 863.4,910.7 853.8,887.2 832.4,887.2 828.3,910.7 			"/>
		</g>
		<g id="hand_33_">
			<path class="st4" d="M753.6,467.6c0,0-49.3,5.7-55,121.9c-3.7,75.3,28.2,106.5,28.2,106.5l-12.3-1.8c0,0,42.1-105.1,45.9-151.7
				C762.1,520.4,753.6,467.6,753.6,467.6z"/>
		</g>
		<g id="hand_32_">
			<path class="st4" d="M834.1,467.6c0,0,47.4,8.5,56.7,121.9c6.1,75.1-47.5,104.4-47.5,104.4l-36.6-5.7c0,0,26.2-99,22.4-145.7
				C827.2,520.4,834.1,467.6,834.1,467.6z"/>
		</g>
		<path class="st4" d="M781.9,458.6c-13.7,0.9-35.9,11.6-40,15.6c-6.8,46.8-11.6,262.4-11.6,262.4l131.4,1c0,0,3.2-192.2-16.1-260.9
			c-6.8-11.3-34.3-16.3-39-18.1C797.8,454.8,793.5,457.8,781.9,458.6z"/>
		<g id="head_21_">
			<path class="st6" d="M770.2,405.8c0,0-2.9-1.9-5.2,1.1c-2.3,3-0.8,14.3,4.9,14.3C775.5,421.2,770.2,405.8,770.2,405.8z"/>
			<path class="st6" d="M818.5,405.8c0,0,2.9-1.9,5.2,1.1c2.3,3,0.8,14.3-4.9,14.3C813.1,421.2,818.5,405.8,818.5,405.8z"/>
			<path class="st6" d="M806.6,458.6c0,0-9.6,8.3-24.7,0l2.2-26.6h20.4L806.6,458.6z"/>
			<path class="st6" d="M817.1,402.6c0-12.7-10.3-21-22.9-21c-12.7,0-22.9,8.3-22.9,21c0,0-1,16.2-1,17c0,12.1,14.8,27.4,23.9,27.4
				c10.6,0,23.9-18.2,23.9-27.4C818.1,418.8,817.1,402.6,817.1,402.6z"/>
			<path class="st2" d="M813.9,376.9c-15.8-13.8-36.5-6.8-43.4,6.5c-5.5,10.6-2.1,21.1-1.5,28.4c0.8,9.3,12.9,24.3,24.8,24.3
				c12.8,0,24.1-14.3,25.4-23.2C820.4,403.9,824.1,385.8,813.9,376.9z"/>
		</g>
	</g>
	<g id="_x30_4_Back">
		<g id="_x30_4_Front_1_">
			<g id="leg_47_">
				<path class="st4" d="M541.4,599.9c0,0,7.5,51.6,10.1,118.4c2.3,58.6-10.1,58.9,0.5,141.3l1.4,30.5l17,8.2c0,0,4-92.8,26-312.6
					C596.4,585.9,553.7,569.1,541.4,599.9z"/>
				<polygon class="st2" points="576.5,918.9 546,918.9 546,910.6 551.5,887.2 571.2,887.2 576.5,910.6 				"/>
			</g>
			<g id="leg_46_">
				<path class="st4" d="M646.6,718.3c2.6-66.8,10.1-118.4,10.1-118.4c-12.3-30.8-54.9-14.1-54.9-14.1c22,219.8,26,312.6,26,312.6
					l16.9-5l1.5-33.8C656.7,777.2,644.3,776.9,646.6,718.3z"/>
				<polygon class="st2" points="621.6,918.9 652.2,918.9 652.2,910.6 646.6,887.2 626.9,887.2 621.6,910.6 				"/>
			</g>
			<g id="hand_35_">
				<path class="st6" d="M556.5,466.5c0,0-36.5,24.9-47,132c-7.4,75,25.8,97.5,25.8,97.5l28.1,4.2c0,0-4.1-105.1-0.3-151.7
					C564.9,526.4,556.5,466.5,556.5,466.5z"/>
			</g>
			<g id="hand_34_">
				<path class="st6" d="M635.1,465.5c0,0,42.4,16.6,51.6,129.9c6.1,75.1-34.5,110-34.5,110l25.5-5.2c0,0-42.1-105.1-45.9-151.7
					C630,526.4,635.1,465.5,635.1,465.5z"/>
			</g>
			<path id="dress_7_" class="st6" d="M584.7,457.5c-13.7,0.9-28.9,3.3-33.1,17.6c-2.8,19.6,6.5,82.1-5.3,146.1
				C529.6,711.4,533.1,749,533.1,749l131.4,1c0,0,1.7-38.6-11.8-127.7c-9.1-60.4-1.6-119.9-10-147.1c-4.5-14.3-25.9-15.7-33.2-17.6
				C600.6,453.8,596.3,456.8,584.7,457.5z"/>
		</g>
		<path class="st4" d="M625.4,387.9c-0.9-4.3-4.9-13.8-7.9-16.5c-15.9-14.2-38.1-5.1-44.2,8.6c-28.9,65.3,3.3,154.3-50.3,170.7
			C664.2,577,635.6,435.2,625.4,387.9z"/>
	</g>
	<g>
		<g id="_x30_1_3_x2F_4">
			<g>
				<g id="head_28_">
					<path class="st6" d="M406.4,386.2c13.4-3.4,32.8,6.1,35.8,21.8c3,15.7,5.9,43.2-4.1,46.7c-4.4,1.5-21.3,0-21.3,0l3.6,18.8h-31
						l5.1-26.9C394.6,446.6,362.1,397.4,406.4,386.2z"/>
					<path class="st4" d="M438.1,398.6c0,0,14-13.4,11-17.6c-1.9-2.6-10.3,5.4-12.4,2.9c-1.7-2,8-6.7,5.5-7.4
						c-11.7-3.5-51.3,5.4-52.4,15.2C388.8,401.4,438.1,398.6,438.1,398.6z"/>
				</g>
				<g id="_x30_1_Front_2_">
					<g id="leg_49_">
						<path class="st4" d="M343.6,596.2c0,0,7.2,76.8,9.8,147.7c-4.6,59.3-0.3,108.2,0.5,116.1l30,0.1c0.3-15.5,3.6-62.6,10.2-113.2
							c9.7-74.2,23.7-155.9,23.7-155.9S355.9,565.4,343.6,596.2z"/>
						<polygon class="st2" points="379.2,898.9 358.9,893.3 359.4,871.9 380.8,871.9 						"/>
						<polygon class="st6" points="359.4,871.9 380.8,871.9 381.8,860.1 359.4,860.1 						"/>
						<polygon class="st4" points="383.9,919.4 348.8,919.4 348.8,911.1 358.4,887.7 380.3,887.7 383.9,911.1 						"/>
					</g>
					<g id="leg_1_">
						<path class="st4" d="M479.8,751.2c-11,58.4-28,104.5-30.8,112l-29-7.8c3.8-15,12.9-61.4,19.8-111.9
							C449.9,669.3,503.9,689.4,479.8,751.2z"/>
						<polygon class="st2" points="414.4,894.1 435.4,894 440.5,873.3 419.8,867.6 						"/>
						<polygon class="st6" points="440.5,873.3 419.8,867.6 422,856 443.6,861.8 						"/>
						<polygon class="st4" points="404.5,912.6 438.4,921.8 440.5,913.8 437.4,888.7 416.3,883 406.6,904.6 						"/>
					</g>
					<g id="hoodie_12_">
						<path class="st7" d="M399.3,466.3c-13.7,0.9-31.5-3.7-40.4,22.3c-6.8,46.8-18.4,247.4-18.4,247.4l131.4,1
							c0,0-11.9-193.3-28.4-262.7C438.4,466,411,465.6,399.3,466.3z"/>
					</g>
					<g id="hand_37_">
						<path class="st7" d="M442.6,485.2c0,0,49.1,10.3,58.4,123.7C507,684,455,713.3,455,713.3l-37.2-7.9c0,0,25.3-96.9,21.4-143.5
							C437.4,539.8,442.6,485.2,442.6,485.2z"/>
					</g>
				</g>
				<g id="_x30_1_Standing_1_">
					<g id="hoodie_14_">
						<path class="st7" d="M433.6,468.6l-95.6-23.4c0,0-19.4,60.5,28.7,63.4C414.9,511.3,433.6,468.6,433.6,468.6z"/>
					</g>
				</g>
				<path class="st7" d="M357.6,494.7c0,0-61.9,97.4-55.9,126.8c6,29.4,55.9,56.6,55.9,56.6V494.7z"/>
			</g>
			<path class="st8" d="M409.5,499.8c-29.3,17.2-58.1,5-58.1,5S376.9,530.6,409.5,499.8z"/>
		</g>
		<path class="st4" d="M447,439.2c-0.4-6.3-0.2-6.6-7.8-6.7c-7.6,0-9.8,9.8-13.9,9.3c-2.4-0.3-11.2-19.5-4.4-32.6
			c3.8-7.4,17.3-10.7,17.3-10.7c-5.9-22.4-47.4-16.5-55,1.1c-8.1,18.7,9.7,47.2,11.5,46.9c1.8-0.3,8.5-10.1,9.3-12.4
			c0.8-2.3-7.2-8-3.7-14.7c2.9-5.5,8.3-7.2,11.9-0.5c0.8,1.4,1.4,2.5,2,3.4c1.1,9.5-0.5,25.5,1.7,29.7c3.7,7.2,29.6,3,31.8,2.6
			C449.8,454.2,447.5,445.3,447,439.2z"/>
	</g>
	<g>
		<g id="_x30_2_3_x2F_4">
			<g id="_x30_2_Standing_1_">
				<g id="hoodie_15_">
					<g id="head_24_">
						<path class="st6" d="M214.7,409.6c13.4-3.4,32-0.7,35.8,21.8c2.7,15.8,5.9,43.2-4.1,46.7c-4.4,1.5-21.3,0-21.3,0l3.6,18.8h-31
							l5.1-26.9C202.9,470,170.4,420.8,214.7,409.6z"/>
						<path class="st4" d="M240.7,412.6l-20.3,29.9c-3.6-6.7-9.1-5-11.9,0.5c-3.5,6.7,4.4,12.5,3.7,14.7c-0.8,2.3-7.5,12.1-9.3,12.4
							c-1.8,0.3-35.4-15-19.9-53.5C190.1,398.7,220.7,392.5,240.7,412.6z"/>
					</g>
				</g>
			</g>
		</g>
		<g>
			<g id="_x30_3_3_x2F_4_1_">
				<g id="_x30_3_Front_1_">
					<g id="leg_7_">
						<polygon class="st6" points="218.8,900.7 200.7,895.7 201.2,868.6 220.3,868.6 						"/>
						<path class="st2" d="M185.4,595.6c0,0,7.2,76.8,9.8,147.7c-4.6,59.3-0.3,117.2,0.5,125.2l30,0.1c0.3-15.5,3.6-71.7,10.2-122.2
							c9.7-74.3,23.7-155.9,23.7-155.9S197.8,564.8,185.4,595.6z"/>
						<polygon class="st2" points="223,918.9 191.7,918.9 191.7,911.5 200.2,890.7 219.3,890.7 223,911.5 						"/>
					</g>
					<g id="leg_2_">
						<polygon class="st6" points="275.4,900.7 293.5,895.7 293.1,868.6 273.9,868.6 						"/>
						<path class="st2" d="M238.5,700.2c0,0,62-27.8,59.4,43.1c4.6,59.3,0.3,117.2-0.5,125.2l-30,0.1c-0.3-15.5-3.6-71.7-10.2-122.2
							c-9.7-74.3-23.7-155.9-23.7-155.9S226.2,669.4,238.5,700.2z"/>
						<polygon class="st2" points="271.2,918.9 302.5,918.9 302.5,911.5 294,890.7 274.9,890.7 271.2,911.5 						"/>
					</g>
					<g id="hand_6_">
						<path class="st4" d="M254.1,498.4c0,0,52.5,11.6,61.8,125c6.1,75.1-62.9,76.8-62.9,76.8s-0.2-73.3-4-119.9
							C247.2,558.2,254.1,498.4,254.1,498.4z"/>
					</g>
					<path class="st4" d="M200.7,489.5c-13.8,1.4-38.4,14.7-42.3,18.6c-6.8,46.8-8,226.3-8,226.3l131.4,1c0,0,3.2-159.2-16.1-227.9
						c-6.3-10.5-30.4-15.6-37.6-17.7C227.4,489.6,201.1,489.4,200.7,489.5z"/>
				</g>
				<path class="st4" d="M164.2,504c-33.6,19.7-54.2,89.4-47.8,126.4c6.1,35.6,64.2,59,64.2,59S180.6,530.5,164.2,504z"/>
			</g>
		</g>
		<path class="st4" d="M185.6,417c-21.8-14.7-18.4,131.8-18.4,131.8l-33.1,31.6c0,0-4-153,25-178.8c12.2-10.9,26.2,1.1,29.4,4.9
			c0.9,1.1,1.4,1.9,1.4,1.9L185.6,417z"/>
	</g>
	<g>
		<g>
			<g>
				<rect x="145.4" y="738.4" class="st4" width="13.6" height="182.4"/>
				<rect x="216.8" y="617.8" class="st4" width="13.6" height="137.4"/>
				<rect x="404.9" y="617.8" class="st4" width="13.6" height="137.4"/>
				<rect x="593.1" y="617.8" class="st4" width="13.6" height="137.4"/>
				<rect x="781.2" y="617.8" class="st4" width="13.6" height="137.4"/>
			</g>
			<g>
				<rect x="852.6" y="738.4" class="st4" width="13.6" height="182.4"/>
			</g>
		</g>
		<g>
			<g>
				<g>
					<g>
						<path class="st2" d="M311.2,695c0.9,8.4-5.3,15.2-13.7,15.2H149.7c-8.4,0-14.6-6.8-13.7-15.2l12.2-116.3
							c0.9-8.4,8.5-15.2,16.9-15.2h117c8.4,0,16,6.8,16.9,15.2L311.2,695z"/>
					</g>
				</g>
				<g>
					<g>
						<path class="st2" d="M499.3,695c0.9,8.4-5.3,15.2-13.7,15.2H337.9c-8.4,0-14.6-6.8-13.7-15.2l12.2-116.3
							c0.9-8.4,8.5-15.2,16.9-15.2h117c8.4,0,16,6.8,16.9,15.2L499.3,695z"/>
					</g>
				</g>
				<g>
					<g>
						<path class="st2" d="M687.5,695c0.9,8.4-5.3,15.2-13.7,15.2H526c-8.4,0-14.6-6.8-13.7-15.2l12.2-116.3
							c0.9-8.4,8.5-15.2,16.9-15.2h117c8.4,0,16,6.8,16.9,15.2L687.5,695z"/>
					</g>
				</g>
				<g>
					<g>
						<path class="st2" d="M875.6,695c0.9,8.4-5.3,15.2-13.7,15.2H714.1c-8.4,0-14.6-6.8-13.7-15.2l12.2-116.3
							c0.9-8.4,8.5-15.2,16.9-15.2h117c8.4,0,16,6.8,16.9,15.2L875.6,695z"/>
					</g>
				</g>
			</g>
			<path class="st2" d="M906.9,749.3c0,8.4-6.8,15.3-15.3,15.3H120c-8.4,0-15.3-6.8-15.3-15.3l0,0c0-8.4,6.8-15.3,15.3-15.3h771.7
				C900.1,734,906.9,740.8,906.9,749.3L906.9,749.3z"/>
		</g>
	</g>
</g>
<path class="st5" d="M-112.1,765.4"/>
</svg>
